SourceSansPro_intermediate.ufo
<glyph name="exclam" format="1">
  <advance width="372.0"/>
  <unicode hex="0021"/>
  <outline>
    <contour>
      <point x="168.0" y="179.2" type="line"/>
      <point x="204.0" y="179.2" type="line"/>
      <point x="210.0" y="599.4" type="line"/>
      <point x="210.0" y="670.0" type="line"/>
      <point x="162.0" y="670.0" type="line"/>
      <point x="162.0" y="599.4" type="line"/>
    </contour>
    <contour>
      <point x="186.0" y="-12.0" type="curve" smooth="yes"/>
      <point x="213.0" y="-12.0"/>
      <point x="240.0" y="5.2"/>
      <point x="240.0" y="32.6" type="curve" smooth="yes"/>
      <point x="240.0" y="61.8"/>
      <point x="213.0" y="79.0"/>
      <point x="186.0" y="79.0" type="curve" smooth="yes"/>
      <point x="159.0" y="79.0"/>
      <point x="132.0" y="61.8"/>
      <point x="132.0" y="32.6" type="curve" smooth="yes"/>
      <point x="132.0" y="5.2"/>
      <point x="159.0" y="-12.0"/>
    </contour>
  </outline>
</glyph>
<glyph name="numbersign" format="1">
  <advance width="708.0"/>
  <unicode hex="0023"/>
  <outline>
    <contour>
      <point x="141.0" y="0.0" type="line"/>
      <point x="183.0" y="0.0" type="line"/>
      <point x="222.0" y="214.2" type="line"/>
      <point x="456.0" y="214.2" type="line"/>
      <point x="417.0" y="0.0" type="line"/>
      <point x="459.0" y="0.0" type="line"/>
      <point x="498.0" y="214.2" type="line"/>
      <point x="633.0" y="214.2" type="line"/>
      <point x="633.0" y="250.2" type="line"/>
      <point x="504.0" y="250.2" type="line"/>
      <point x="537.0" y="420.0" type="line"/>
      <point x="663.0" y="420.0" type="line"/>
      <point x="663.0" y="456.0" type="line"/>
      <point x="540.0" y="456.0" type="line"/>
      <point x="579.0" y="650.0" type="line"/>
      <point x="537.0" y="650.0" type="line"/>
      <point x="498.0" y="456.0" type="line"/>
      <point x="264.0" y="456.0" type="line"/>
      <point x="303.0" y="650.0" type="line"/>
      <point x="261.0" y="650.0" type="line"/>
      <point x="222.0" y="456.0" type="line"/>
      <point x="84.0" y="456.0" type="line"/>
      <point x="84.0" y="420.0" type="line"/>
      <point x="219.0" y="420.0" type="line"/>
      <point x="186.0" y="250.2" type="line"/>
      <point x="54.0" y="250.2" type="line"/>
      <point x="54.0" y="214.2" type="line"/>
      <point x="180.0" y="214.2" type="line"/>
    </contour>
    <contour>
      <point x="228.0" y="250.2" type="line"/>
      <point x="261.0" y="420.0" type="line"/>
      <point x="495.0" y="420.0" type="line"/>
      <point x="462.0" y="250.2" type="line"/>
    </contour>
  </outline>
</glyph>
<glyph name="dollar" format="1">
  <advance width="708.0"/>
  <unicode hex="0024"/>
  <outline>
    <contour>
      <point x="366.0" y="-12.0" type="curve" smooth="yes"/>
      <point x="504.0" y="-12.0"/>
      <point x="618.0" y="50.8"/>
      <point x="618.0" y="152.6" type="curve" smooth="yes"/>
      <point x="618.0" y="381.4"/>
      <point x="180.0" y="322.4"/>
      <point x="180.0" y="497.4" type="curve" smooth="yes"/>
      <point x="180.0" y="562.6"/>
      <point x="255.0" y="612.4"/>
      <point x="363.0" y="612.4" type="curve" smooth="yes"/>
      <point x="459.0" y="612.4"/>
      <point x="504.0" y="589.2"/>
      <point x="561.0" y="551.8" type="curve"/>
      <point x="591.0" y="579.6" type="line"/>
      <point x="537.0" y="619.0"/>
      <point x="477.0" y="651.4"/>
      <point x="366.0" y="651.4" type="curve" smooth="yes"/>
      <point x="234.0" y="651.4"/>
      <point x="132.0" y="586.2"/>
      <point x="132.0" y="494.8" type="curve" smooth="yes"/>
      <point x="132.0" y="291.9"/>
      <point x="570.0" y="346.6"/>
      <point x="570.0" y="149.6" type="curve" smooth="yes"/>
      <point x="570.0" y="77.3"/>
      <point x="498.0" y="27.0"/>
      <point x="366.0" y="27.0" type="curve" smooth="yes"/>
      <point x="258.0" y="27.0"/>
      <point x="174.0" y="62.8"/>
      <point x="120.0" y="97.4" type="curve"/>
      <point x="93.0" y="66.0" type="line"/>
      <point x="153.0" y="26.4"/>
      <point x="249.0" y="-12.0"/>
    </contour>
    <contour>
      <point x="342.0" y="-110.0" type="line"/>
      <point x="387.0" y="-110.0" type="line"/>
      <point x="387.0" y="-1.2" type="line"/>
      <point x="342.0" y="-1.2" type="line"/>
    </contour>
    <contour>
      <point x="342.0" y="630.0" type="line"/>
      <point x="387.0" y="630.0" type="line"/>
      <point x="387.0" y="749.4" type="line"/>
      <point x="342.0" y="749.4" type="line"/>
    </contour>
  </outline>
</glyph>
<glyph name="ampersand" format="1">
  <advance width="843.0"/>
  <unicode hex="0026"/>
  <outline>
    <contour>
      <point x="336.0" y="-12.0" type="curve" smooth="yes"/>
      <point x="453.0" y="-12.0"/>
      <point x="540.0" y="28.6"/>
      <point x="615.0" y="86.0" type="curve" smooth="yes"/>
      <point x="702.0" y="156.4"/>
      <point x="765.0" y="247.2"/>
      <point x="807.0" y="345.2" type="curve"/>
      <point x="762.0" y="345.2" type="line"/>
      <point x="723.0" y="252.4"/>
      <point x="666.0" y="172.2"/>
      <point x="582.0" y="109.8" type="curve" smooth="yes"/>
      <point x="516.0" y="61.0"/>
      <point x="432.0" y="26.2"/>
      <point x="339.0" y="26.2" type="curve" smooth="yes"/>
      <point x="213.0" y="26.2"/>
      <point x="105.0" y="83.0"/>
      <point x="105.0" y="169.8" type="curve" smooth="yes"/>
      <point x="105.0" y="328.4"/>
      <point x="546.0" y="386.0"/>
      <point x="546.0" y="551.2" type="curve" smooth="yes"/>
      <point x="546.0" y="620.0"/>
      <point x="492.0" y="671.0"/>
      <point x="390.0" y="671.0" type="curve" smooth="yes"/>
      <point x="276.0" y="671.0"/>
      <point x="195.0" y="608.8"/>
      <point x="195.0" y="523.8" type="curve" smooth="yes"/>
      <point x="195.0" y="379.7"/>
      <point x="396.0" y="194.6"/>
      <point x="588.0" y="81.3" type="curve" smooth="yes"/>
      <point x="669.0" y="33.7"/>
      <point x="744.0" y="3.6"/>
      <point x="807.0" y="-12.0" type="curve"/>
      <point x="825.0" y="27.0" type="line"/>
      <point x="762.0" y="41.9"/>
      <point x="690.0" y="71.1"/>
      <point x="615.0" y="113.7" type="curve" smooth="yes"/>
      <point x="435.0" y="214.8"/>
      <point x="240.0" y="391.8"/>
      <point x="240.0" y="525.6" type="curve" smooth="yes"/>
      <point x="240.0" y="585.6"/>
      <point x="294.0" y="634.6"/>
      <point x="387.0" y="634.6" type="curve" smooth="yes"/>
      <point x="471.0" y="634.6"/>
      <point x="501.0" y="591.8"/>
      <point x="501.0" y="549.4" type="curve" smooth="yes"/>
      <point x="501.0" y="400.4"/>
      <point x="57.0" y="351.0"/>
      <point x="57.0" y="167.0" type="curve" smooth="yes"/>
      <point x="57.0" y="58.2"/>
      <point x="186.0" y="-12.0"/>
    </contour>
  </outline>
</glyph>
<glyph name="parenright" format="1">
  <advance width="405.0"/>
  <unicode hex="0029"/>
  <outline>
    <contour>
      <point x="72.0" y="-174.6" type="line"/>
      <point x="195.0" y="-42.0"/>
      <point x="270.0" y="102.0"/>
      <point x="270.0" y="278.0" type="curve" smooth="yes"/>
      <point x="270.0" y="454.0"/>
      <point x="195.0" y="598.0"/>
      <point x="72.0" y="730.6" type="curve"/>
      <point x="45.0" y="715.4" type="line"/>
      <point x="165.0" y="589.0"/>
      <point x="228.0" y="435.8"/>
      <point x="228.0" y="278.0" type="curve" smooth="yes"/>
      <point x="228.0" y="120.2"/>
      <point x="165.0" y="-33.0"/>
      <point x="45.0" y="-159.4" type="curve"/>
    </contour>
  </outline>
</glyph>
<glyph name="period" format="1">
  <advance width="312.0"/>
  <unicode hex="002E"/>
  <outline>
    <contour>
      <point x="156.0" y="-12.0" type="curve" smooth="yes"/>
      <point x="183.0" y="-12.0"/>
      <point x="210.0" y="5.2"/>
      <point x="210.0" y="32.6" type="curve" smooth="yes"/>
      <point x="210.0" y="61.8"/>
      <point x="183.0" y="79.0"/>
      <point x="156.0" y="79.0" type="curve" smooth="yes"/>
      <point x="129.0" y="79.0"/>
      <point x="102.0" y="61.8"/>
      <point x="102.0" y="32.6" type="curve" smooth="yes"/>
      <point x="102.0" y="5.2"/>
      <point x="129.0" y="-12.0"/>
    </contour>
  </outline>
</glyph>
<glyph name="zero" format="1">
  <advance width="708.0"/>
  <unicode hex="0030"/>
  <outline>
    <contour>
      <point x="354.0" y="-12.0" type="curve" smooth="yes"/>
      <point x="534.0" y="-12.0"/>
      <point x="633.0" y="109.3"/>
      <point x="633.0" y="321.8" type="curve" smooth="yes"/>
      <point x="633.0" y="534.2"/>
      <point x="534.0" y="651.4"/>
      <point x="354.0" y="651.4" type="curve" smooth="yes"/>
      <point x="174.0" y="651.4"/>
      <point x="75.0" y="534.3"/>
      <point x="75.0" y="321.8" type="curve" smooth="yes"/>
      <point x="75.0" y="109.3"/>
      <point x="174.0" y="-12.0"/>
    </contour>
    <contour>
      <point x="354.0" y="26.4" type="curve" smooth="yes"/>
      <point x="213.0" y="26.4"/>
      <point x="123.0" y="126.8"/>
      <point x="123.0" y="321.8" type="curve" smooth="yes"/>
      <point x="123.0" y="516.8"/>
      <point x="213.0" y="613.0"/>
      <point x="354.0" y="613.0" type="curve" smooth="yes"/>
      <point x="495.0" y="613.0"/>
      <point x="585.0" y="516.8"/>
      <point x="585.0" y="321.8" type="curve" smooth="yes"/>
      <point x="585.0" y="126.8"/>
      <point x="495.0" y="26.4"/>
    </contour>
  </outline>
</glyph>
<glyph name="one" format="1">
  <advance width="708.0"/>
  <unicode hex="0031"/>
  <outline>
    <contour>
      <point x="129.0" y="0.0" type="line"/>
      <point x="615.0" y="0.0" type="line"/>
      <point x="615.0" y="39.0" type="line"/>
      <point x="402.0" y="39.0" type="line"/>
      <point x="402.0" y="639.4" type="line"/>
      <point x="363.0" y="639.4" type="line"/>
      <point x="321.0" y="622.0"/>
      <point x="261.0" y="607.6"/>
      <point x="186.0" y="599.0" type="curve"/>
      <point x="186.0" y="568.6" type="line"/>
      <point x="357.0" y="568.6" type="line"/>
      <point x="357.0" y="39.0" type="line"/>
      <point x="129.0" y="39.0" type="line"/>
    </contour>
  </outline>
</glyph>
<glyph name="two" format="1">
  <advance width="708.0"/>
  <unicode hex="0032"/>
  <outline>
    <contour>
      <point x="63.0" y="0.0" type="line"/>
      <point x="639.0" y="0.0" type="line"/>
      <point x="639.0" y="39.6" type="line"/>
      <point x="294.0" y="39.6" type="line" smooth="yes"/>
      <point x="240.0" y="39.6"/>
      <point x="186.0" y="37.4"/>
      <point x="132.0" y="35.2" type="curve"/>
      <point x="414.0" y="223.1"/>
      <point x="591.0" y="345.0"/>
      <point x="591.0" y="472.2" type="curve" smooth="yes"/>
      <point x="591.0" y="580.2"/>
      <point x="495.0" y="651.4"/>
      <point x="327.0" y="651.4" type="curve" smooth="yes"/>
      <point x="213.0" y="651.4"/>
      <point x="129.0" y="610.4"/>
      <point x="60.0" y="556.6" type="curve"/>
      <point x="93.0" y="529.4" type="line"/>
      <point x="153.0" y="577.4"/>
      <point x="234.0" y="612.8"/>
      <point x="324.0" y="612.8" type="curve" smooth="yes"/>
      <point x="477.0" y="612.8"/>
      <point x="543.0" y="550.7"/>
      <point x="543.0" y="471.2" type="curve" smooth="yes"/>
      <point x="543.0" y="360.0"/>
      <point x="387.0" y="241.4"/>
      <point x="63.0" y="27.8" type="curve"/>
    </contour>
  </outline>
</glyph>
<glyph name="three" format="1">
  <advance width="708.0"/>
  <unicode hex="0033"/>
  <outline>
    <contour>
      <point x="345.0" y="-12.0" type="curve" smooth="yes"/>
      <point x="507.0" y="-12.0"/>
      <point x="630.0" y="57.6"/>
      <point x="630.0" y="168.6" type="curve" smooth="yes"/>
      <point x="630.0" y="259.4"/>
      <point x="528.0" y="318.4"/>
      <point x="408.0" y="335.0" type="curve"/>
      <point x="408.0" y="339.0" type="line"/>
      <point x="513.0" y="362.7"/>
      <point x="594.0" y="413.2"/>
      <point x="594.0" y="496.7" type="curve" smooth="yes"/>
      <point x="594.0" y="594.6"/>
      <point x="483.0" y="651.4"/>
      <point x="342.0" y="651.4" type="curve" smooth="yes"/>
      <point x="231.0" y="651.4"/>
      <point x="150.0" y="616.0"/>
      <point x="87.0" y="573.0" type="curve"/>
      <point x="117.0" y="542.8" type="line"/>
      <point x="171.0" y="582.2"/>
      <point x="252.0" y="612.8"/>
      <point x="342.0" y="612.8" type="curve" smooth="yes"/>
      <point x="465.0" y="612.8"/>
      <point x="546.0" y="565.8"/>
      <point x="546.0" y="493.6" type="curve" smooth="yes"/>
      <point x="546.0" y="417.2"/>
      <point x="465.0" y="355.0"/>
      <point x="237.0" y="355.0" type="curve"/>
      <point x="237.0" y="316.0" type="line"/>
      <point x="480.0" y="316.0"/>
      <point x="582.0" y="255.6"/>
      <point x="582.0" y="168.0" type="curve" smooth="yes"/>
      <point x="582.0" y="83.0"/>
      <point x="483.0" y="27.0"/>
      <point x="348.0" y="27.0" type="curve" smooth="yes"/>
      <point x="210.0" y="27.0"/>
      <point x="132.0" y="67.2"/>
      <point x="75.0" y="108.6" type="curve"/>
      <point x="45.0" y="78.0" type="line"/>
      <point x="105.0" y="34.6"/>
      <point x="192.0" y="-12.0"/>
    </contour>
  </outline>
</glyph>
<glyph name="four" format="1">
  <advance width="708.0"/>
  <unicode hex="0034"/>
  <outline>
    <contour>
      <point x="468.0" y="0.0" type="line"/>
      <point x="513.0" y="0.0" type="line"/>
      <point x="513.0" y="639.4" type="line"/>
      <point x="483.0" y="639.4" type="line"/>
      <point x="24.0" y="217.0" type="line"/>
      <point x="24.0" y="190.6" type="line"/>
      <point x="660.0" y="190.6" type="line"/>
      <point x="660.0" y="228.8" type="line"/>
      <point x="87.0" y="228.8" type="line"/>
      <point x="390.0" y="493.4" type="line"/>
      <point x="417.0" y="522.4"/>
      <point x="444.0" y="546.0"/>
      <point x="468.0" y="573.2" type="curve"/>
      <point x="474.0" y="573.2" type="line"/>
      <point x="471.0" y="543.7"/>
      <point x="468.0" y="492.3"/>
      <point x="468.0" y="462.8" type="curve" smooth="yes"/>
    </contour>
  </outline>
</glyph>
<glyph name="five" format="1">
  <advance width="708.0"/>
  <unicode hex="0035"/>
  <outline>
    <contour>
      <point x="336.0" y="-12.0" type="curve" smooth="yes"/>
      <point x="486.0" y="-12.0"/>
      <point x="636.0" y="64.6"/>
      <point x="636.0" y="201.2" type="curve" smooth="yes"/>
      <point x="636.0" y="340.6"/>
      <point x="507.0" y="402.6"/>
      <point x="345.0" y="402.6" type="curve" smooth="yes"/>
      <point x="270.0" y="402.6"/>
      <point x="216.0" y="388.9"/>
      <point x="165.0" y="369.2" type="curve"/>
      <point x="198.0" y="599.8" type="line"/>
      <point x="585.0" y="599.8" type="line"/>
      <point x="585.0" y="639.4" type="line"/>
      <point x="156.0" y="639.4" type="line"/>
      <point x="120.0" y="340.4" type="line"/>
      <point x="159.0" y="321.2" type="line"/>
      <point x="216.0" y="347.0"/>
      <point x="267.0" y="363.8"/>
      <point x="342.0" y="363.8" type="curve" smooth="yes"/>
      <point x="492.0" y="363.8"/>
      <point x="588.0" y="301.6"/>
      <point x="588.0" y="199.0" type="curve" smooth="yes"/>
      <point x="588.0" y="96.2"/>
      <point x="471.0" y="27.0"/>
      <point x="339.0" y="27.0" type="curve" smooth="yes"/>
      <point x="201.0" y="27.0"/>
      <point x="126.0" y="65.6"/>
      <point x="69.0" y="105.0" type="curve"/>
      <point x="39.0" y="74.4" type="line"/>
      <point x="99.0" y="33.2"/>
      <point x="183.0" y="-12.0"/>
    </contour>
  </outline>
</glyph>
<glyph name="seven" format="1">
  <advance width="708.0"/>
  <unicode hex="0037"/>
  <outline>
    <contour>
      <point x="288.0" y="0.0" type="curve"/>
      <point x="339.0" y="0.0" type="line"/>
      <point x="354.0" y="249.7"/>
      <point x="414.0" y="410.1"/>
      <point x="645.0" y="612.6" type="curve"/>
      <point x="645.0" y="639.4" type="line"/>
      <point x="66.0" y="639.4" type="line"/>
      <point x="66.0" y="599.8" type="line"/>
      <point x="582.0" y="599.8" type="line"/>
      <point x="387.0" y="419.7"/>
      <point x="303.0" y="257.6"/>
    </contour>
  </outline>
</glyph>
<glyph name="nine" format="1">
  <advance width="708.0"/>
  <unicode hex="0039"/>
  <outline>
    <contour>
      <point x="279.0" y="-12.0" type="curve" smooth="yes"/>
      <point x="462.0" y="-12.0"/>
      <point x="627.0" y="81.8"/>
      <point x="627.0" y="349.6" type="curve" smooth="yes"/>
      <point x="627.0" y="543.6"/>
      <point x="513.0" y="651.4"/>
      <point x="321.0" y="651.4" type="curve" smooth="yes"/>
      <point x="183.0" y="651.4"/>
      <point x="66.0" y="567.8"/>
      <point x="66.0" y="451.6" type="curve" smooth="yes"/>
      <point x="66.0" y="322.8"/>
      <point x="162.0" y="253.8"/>
      <point x="330.0" y="253.8" type="curve" smooth="yes"/>
      <point x="426.0" y="253.8"/>
      <point x="516.0" y="290.6"/>
      <point x="585.0" y="347.4" type="curve"/>
      <point x="585.0" y="394.2" type="line"/>
      <point x="501.0" y="319.6"/>
      <point x="405.0" y="291.0"/>
      <point x="333.0" y="291.0" type="curve" smooth="yes"/>
      <point x="177.0" y="291.0"/>
      <point x="114.0" y="359.1"/>
      <point x="114.0" y="451.6" type="curve" smooth="yes"/>
      <point x="114.0" y="542.9"/>
      <point x="201.0" y="613.4"/>
      <point x="318.0" y="613.4" type="curve" smooth="yes"/>
      <point x="501.0" y="613.4"/>
      <point x="579.0" y="505.8"/>
      <point x="579.0" y="349.6" type="curve" smooth="yes"/>
      <point x="579.0" y="109.4"/>
      <point x="441.0" y="27.0"/>
      <point x="282.0" y="27.0" type="curve" smooth="yes"/>
      <point x="219.0" y="27.0"/>
      <point x="160.5" y="45.4"/>
      <point x="117.0" y="80.0" type="curve"/>
      <point x="87.0" y="50.0" type="line"/>
      <point x="133.5" y="13.4"/>
      <point x="195.0" y="-12.0"/>
    </contour>
  </outline>
</glyph>
<glyph name="less" format="1">
  <advance width="708.0"/>
  <unicode hex="003C"/>
  <outline>
    <contour>
      <point x="657.0" y="146.2" type="line"/>
      <point x="657.0" y="189.0" type="line"/>
      <point x="297.0" y="278.6" type="line"/>
      <point x="99.0" y="330.0" type="line"/>
      <point x="99.0" y="334.0" type="line"/>
      <point x="297.0" y="385.4" type="line"/>
      <point x="657.0" y="475.0" type="line"/>
      <point x="657.0" y="517.8" type="line"/>
      <point x="51.0" y="354.0" type="line"/>
      <point x="51.0" y="310.0" type="line"/>
    </contour>
  </outline>
</glyph>
<glyph name="greater" format="1">
  <advance width="708.0"/>
  <unicode hex="003E"/>
  <outline>
    <contour>
      <point x="51.0" y="146.2" type="line"/>
      <point x="657.0" y="310.0" type="line"/>
      <point x="657.0" y="354.0" type="line"/>
      <point x="51.0" y="517.8" type="line"/>
      <point x="51.0" y="475.0" type="line"/>
      <point x="411.0" y="385.4" type="line"/>
      <point x="609.0" y="334.0" type="line"/>
      <point x="609.0" y="330.0" type="line"/>
      <point x="411.0" y="278.6" type="line"/>
      <point x="51.0" y="189.0" type="line"/>
    </contour>
  </outline>
</glyph>
<glyph name="A" format="1">
  <advance width="780.0"/>
  <unicode hex="0041"/>
  <outline>
    <contour>
      <point x="15.0" y="0.0" type="line"/>
      <point x="63.0" y="0.0" type="line"/>
      <point x="273.0" y="388.0" type="line" smooth="yes"/>
      <point x="315.0" y="466.2"/>
      <point x="351.0" y="535.2"/>
      <point x="387.0" y="615.6" type="curve"/>
      <point x="393.0" y="615.6" type="line"/>
      <point x="429.0" y="535.3"/>
      <point x="465.0" y="466.2"/>
      <point x="507.0" y="388.0" type="curve" smooth="yes"/>
      <point x="714.0" y="0.0" type="line"/>
      <point x="765.0" y="0.0" type="line"/>
      <point x="411.0" y="659.0" type="line"/>
      <point x="369.0" y="659.0" type="line"/>
    </contour>
    <contour>
      <point x="168.0" y="226.2" type="line"/>
      <point x="607.5" y="226.2" type="line"/>
      <point x="607.5" y="264.7" type="line"/>
      <point x="168.0" y="264.7" type="line"/>
    </contour>
    <contour>
      <point x="390.0" y="681.0" type="move" name="aboveUC"/>
    </contour>
    <contour>
      <point x="684.0" y="0.0" type="move" name="ogonekUC"/>
    </contour>
    <contour>
      <point x="390.0" y="-22.0" type="move" name="belowLC"/>
    </contour>
  </outline>
</glyph>
<glyph name="B" format="1">
  <advance width="861.0"/>
  <unicode hex="0042"/>
  <outline>
    <contour>
      <point x="150.0" y="0.0" type="line"/>
      <point x="426.0" y="0.0" type="line" smooth="yes"/>
      <point x="651.0" y="0.0"/>
      <point x="792.0" y="65.2"/>
      <point x="792.0" y="192.0" type="curve" smooth="yes"/>
      <point x="792.0" y="283.4"/>
      <point x="705.0" y="336.8"/>
      <point x="573.0" y="351.2" type="curve"/>
      <point x="573.0" y="355.2" type="line"/>
      <point x="675.0" y="375.2"/>
      <point x="729.0" y="430.2"/>
      <point x="729.0" y="498.8" type="curve" smooth="yes"/>
      <point x="729.0" y="608.8"/>
      <point x="606.0" y="659.0"/>
      <point x="408.0" y="659.0" type="curve" smooth="yes"/>
      <point x="150.0" y="659.0" type="line"/>
    </contour>
    <contour>
      <point x="198.0" y="369.0" type="line"/>
      <point x="198.0" y="620.6" type="line"/>
      <point x="387.0" y="620.6" type="line" smooth="yes"/>
      <point x="579.0" y="620.6"/>
      <point x="681.0" y="586.6"/>
      <point x="681.0" y="494.4" type="curve" smooth="yes"/>
      <point x="681.0" y="416.6"/>
      <point x="594.0" y="369.0"/>
      <point x="378.0" y="369.0" type="curve" smooth="yes"/>
    </contour>
    <contour>
      <point x="198.0" y="38.4" type="line"/>
      <point x="198.0" y="331.2" type="line"/>
      <point x="408.0" y="331.2" type="line" smooth="yes"/>
      <point x="621.0" y="331.2"/>
      <point x="744.0" y="286.2"/>
      <point x="744.0" y="191.4" type="curve" smooth="yes"/>
      <point x="744.0" y="85.8"/>
      <point x="615.0" y="38.4"/>
      <point x="408.0" y="38.4" type="curve" smooth="yes"/>
    </contour>
    <contour>
      <point x="414.0" y="681.0" type="move" name="aboveUC"/>
    </contour>
    <contour>
      <point x="438.0" y="-22.0" type="move" name="belowLC"/>
    </contour>
  </outline>
</glyph>
<glyph name="C" format="1">
  <advance width="843.0"/>
  <unicode hex="0043"/>
  <outline>
    <contour>
      <point x="492.0" y="-12.0" type="curve" smooth="yes"/>
      <point x="621.0" y="-12.0"/>
      <point x="708.0" y="23.6"/>
      <point x="783.0" y="82.2" type="curve"/>
      <point x="753.0" y="111.0" type="line"/>
      <point x="678.0" y="57.6"/>
      <point x="600.0" y="29.8"/>
      <point x="495.0" y="29.8" type="curve" smooth="yes"/>
      <point x="273.0" y="29.8"/>
      <point x="135.0" y="148.2"/>
      <point x="135.0" y="331.4" type="curve" smooth="yes"/>
      <point x="135.0" y="514.2"/>
      <point x="273.0" y="629.2"/>
      <point x="501.0" y="629.2" type="curve" smooth="yes"/>
      <point x="594.0" y="629.2"/>
      <point x="669.0" y="602.0"/>
      <point x="723.0" y="561.4" type="curve"/>
      <point x="753.0" y="592.2" type="line"/>
      <point x="702.0" y="632.8"/>
      <point x="615.0" y="671.0"/>
      <point x="501.0" y="671.0" type="curve" smooth="yes"/>
      <point x="249.0" y="671.0"/>
      <point x="84.0" y="539.8"/>
      <point x="84.0" y="330.8" type="curve" smooth="yes"/>
      <point x="84.0" y="121.4"/>
      <point x="249.0" y="-12.0"/>
    </contour>
    <contour>
      <point x="477.0" y="681.0" type="move" name="aboveUC"/>
    </contour>
    <contour>
      <point x="507.0" y="0.0" type="move" name="baseLC"/>
    </contour>
    <contour>
      <point x="507.0" y="-22.0" type="move" name="belowLC"/>
    </contour>
  </outline>
</glyph>
<glyph name="E" format="1">
  <advance width="765.0"/>
  <unicode hex="0045"/>
  <outline>
    <contour>
      <point x="150.0" y="0.0" type="line"/>
      <point x="696.0" y="0.0" type="line"/>
      <point x="696.0" y="39.6" type="line"/>
      <point x="198.0" y="39.6" type="line"/>
      <point x="198.0" y="330.2" type="line"/>
      <point x="603.0" y="330.2" type="line"/>
      <point x="603.0" y="369.8" type="line"/>
      <point x="198.0" y="369.8" type="line"/>
      <point x="198.0" y="619.4" type="line"/>
      <point x="681.0" y="619.4" type="line"/>
      <point x="681.0" y="659.0" type="line"/>
      <point x="150.0" y="659.0" type="line"/>
    </contour>
    <contour>
      <point x="423.0" y="681.0" type="move" name="aboveUC"/>
    </contour>
    <contour>
      <point x="576.0" y="0.0" type="move" name="ogonekUC"/>
    </contour>
    <contour>
      <point x="450.0" y="-22.0" type="move" name="belowLC"/>
    </contour>
  </outline>
</glyph>
<glyph name="F" format="1">
  <advance width="705.0"/>
  <unicode hex="0046"/>
  <outline>
    <contour>
      <point x="150.0" y="0.0" type="line"/>
      <point x="198.0" y="0.0" type="line"/>
      <point x="198.0" y="317.2" type="line"/>
      <point x="603.0" y="317.2" type="line"/>
      <point x="603.0" y="356.8" type="line"/>
      <point x="198.0" y="356.8" type="line"/>
      <point x="198.0" y="619.4" type="line"/>
      <point x="678.0" y="619.4" type="line"/>
      <point x="678.0" y="659.0" type="line"/>
      <point x="150.0" y="659.0" type="line"/>
    </contour>
    <contour>
      <point x="426.0" y="681.0" type="move" name="aboveUC"/>
    </contour>
    <contour>
      <point x="174.0" y="-22.0" type="move" name="belowLC"/>
    </contour>
  </outline>
</glyph>
<glyph name="H" format="1">
  <advance width="951.0"/>
  <unicode hex="0048"/>
  <outline>
    <contour>
      <point x="150.0" y="0.0" type="line"/>
      <point x="198.0" y="0.0" type="line"/>
      <point x="198.0" y="330.0" type="line"/>
      <point x="753.0" y="330.0" type="line"/>
      <point x="753.0" y="0.0" type="line"/>
      <point x="801.0" y="0.0" type="line"/>
      <point x="801.0" y="659.0" type="line"/>
      <point x="753.0" y="659.0" type="line"/>
      <point x="753.0" y="370.2" type="line"/>
      <point x="198.0" y="370.2" type="line"/>
      <point x="198.0" y="659.0" type="line"/>
      <point x="150.0" y="659.0" type="line"/>
    </contour>
    <contour>
      <point x="474.0" y="681.0" type="move" name="aboveUC"/>
    </contour>
    <contour>
      <point x="474.0" y="-22.0" type="move" name="belowLC"/>
    </contour>
  </outline>
</glyph>
<glyph name="I" format="1">
  <advance width="348.0"/>
  <unicode hex="0049"/>
  <outline>
    <contour>
      <point x="150.0" y="0.0" type="line"/>
      <point x="198.0" y="0.0" type="line"/>
      <point x="198.0" y="659.0" type="line"/>
      <point x="150.0" y="659.0" type="line"/>
    </contour>
    <contour>
      <point x="174.0" y="681.0" type="move" name="aboveUC"/>
    </contour>
    <contour>
      <point x="135.0" y="0.0" type="move" name="ogonekUC"/>
    </contour>
    <contour>
      <point x="174.0" y="-22.0" type="move" name="belowLC"/>
    </contour>
  </outline>
</glyph>
<glyph name="J" format="1">
  <advance width="684.0"/>
  <unicode hex="004A"/>
  <outline>
    <contour>
      <point x="300.0" y="-12.0" type="curve" smooth="yes"/>
      <point x="474.0" y="-12.0"/>
      <point x="537.0" y="72.6"/>
      <point x="537.0" y="179.2" type="curve" smooth="yes"/>
      <point x="537.0" y="659.0" type="line"/>
      <point x="489.0" y="659.0" type="line"/>
      <point x="489.0" y="184.2" type="line" smooth="yes"/>
      <point x="489.0" y="77.0"/>
      <point x="429.0" y="29.8"/>
      <point x="303.0" y="29.8" type="curve" smooth="yes"/>
      <point x="216.0" y="29.8"/>
      <point x="156.0" y="51.6"/>
      <point x="105.0" y="108.0" type="curve"/>
      <point x="66.0" y="84.9" type="line"/>
      <point x="114.0" y="22.6"/>
      <point x="195.0" y="-12.0"/>
    </contour>
    <contour>
      <point x="507.0" y="681.0" type="move" name="aboveUC"/>
    </contour>
    <contour>
      <point x="360.0" y="-22.0" type="move" name="belowLC"/>
    </contour>
  </outline>
</glyph>
<glyph name="O" format="1">
  <advance width="972.0"/>
  <unicode hex="004F"/>
  <outline>
    <contour>
      <point x="486.0" y="-12.0" type="curve" smooth="yes"/>
      <point x="720.0" y="-12.0"/>
      <point x="888.0" y="123.0"/>
      <point x="888.0" y="331.6" type="curve" smooth="yes"/>
      <point x="888.0" y="540.1"/>
      <point x="720.0" y="671.0"/>
      <point x="486.0" y="671.0" type="curve" smooth="yes"/>
      <point x="252.0" y="671.0"/>
      <point x="84.0" y="540.2"/>
      <point x="84.0" y="331.6" type="curve" smooth="yes"/>
      <point x="84.0" y="123.0"/>
      <point x="252.0" y="-12.0"/>
    </contour>
    <contour>
      <point x="486.0" y="29.8" type="curve" smooth="yes"/>
      <point x="276.0" y="29.8"/>
      <point x="135.0" y="148.8"/>
      <point x="135.0" y="331.6" type="curve" smooth="yes"/>
      <point x="135.0" y="514.4"/>
      <point x="276.0" y="629.2"/>
      <point x="486.0" y="629.2" type="curve" smooth="yes"/>
      <point x="696.0" y="629.2"/>
      <point x="837.0" y="514.4"/>
      <point x="837.0" y="331.6" type="curve" smooth="yes"/>
      <point x="837.0" y="148.8"/>
      <point x="696.0" y="29.8"/>
    </contour>
    <contour>
      <point x="486.0" y="681.0" type="move" name="aboveUC"/>
    </contour>
    <contour>
      <point x="684.0" y="649.0" type="move" name="hornLC"/>
    </contour>
    <contour>
      <point x="486.0" y="0.0" type="move" name="ogonekUC"/>
    </contour>
    <contour>
      <point x="486.0" y="-22.0" type="move" name="belowLC"/>
    </contour>
  </outline>
</glyph>
<glyph name="P" format="1">
  <advance width="813.0"/>
  <unicode hex="0050"/>
  <outline>
    <contour>
      <point x="150.0" y="0.0" type="line"/>
      <point x="198.0" y="0.0" type="line"/>
      <point x="198.0" y="283.4" type="line"/>
      <point x="393.0" y="283.4" type="line" smooth="yes"/>
      <point x="615.0" y="283.4"/>
      <point x="741.0" y="346.1"/>
      <point x="741.0" y="475.4" type="curve" smooth="yes"/>
      <point x="741.0" y="610.6"/>
      <point x="612.0" y="659.0"/>
      <point x="387.0" y="659.0" type="curve" smooth="yes"/>
      <point x="150.0" y="659.0" type="line"/>
    </contour>
    <contour>
      <point x="198.0" y="322.2" type="line"/>
      <point x="198.0" y="620.2" type="line"/>
      <point x="369.0" y="620.2" type="line" smooth="yes"/>
      <point x="585.0" y="620.2"/>
      <point x="690.0" y="585.6"/>
      <point x="690.0" y="475.4" type="curve" smooth="yes"/>
      <point x="690.0" y="367.0"/>
      <point x="588.0" y="322.2"/>
      <point x="375.0" y="322.2" type="curve" smooth="yes"/>
    </contour>
    <contour>
      <point x="438.0" y="681.0" type="move" name="aboveUC"/>
    </contour>
    <contour>
      <point x="177.0" y="-22.0" type="move" name="belowLC"/>
    </contour>
  </outline>
</glyph>
<glyph name="Q" format="1">
  <advance width="972.0"/>
  <unicode hex="0051"/>
  <outline>
    <contour>
      <point x="486.0" y="-12.0" type="curve" smooth="yes"/>
      <point x="720.0" y="-12.0"/>
      <point x="888.0" y="123.0"/>
      <point x="888.0" y="331.6" type="curve" smooth="yes"/>
      <point x="888.0" y="540.1"/>
      <point x="720.0" y="671.0"/>
      <point x="486.0" y="671.0" type="curve" smooth="yes"/>
      <point x="252.0" y="671.0"/>
      <point x="84.0" y="540.2"/>
      <point x="84.0" y="331.6" type="curve" smooth="yes"/>
      <point x="84.0" y="123.0"/>
      <point x="252.0" y="-12.0"/>
    </contour>
    <contour>
      <point x="486.0" y="27.2" type="curve" smooth="yes"/>
      <point x="276.0" y="27.2"/>
      <point x="135.0" y="147.8"/>
      <point x="135.0" y="331.6" type="curve" smooth="yes"/>
      <point x="135.0" y="514.4"/>
      <point x="276.0" y="629.2"/>
      <point x="486.0" y="629.2" type="curve" smooth="yes"/>
      <point x="696.0" y="629.2"/>
      <point x="837.0" y="514.4"/>
      <point x="837.0" y="331.6" type="curve" smooth="yes"/>
      <point x="837.0" y="147.8"/>
      <point x="696.0" y="27.2"/>
    </contour>
    <contour>
      <point x="771.0" y="-155.6" type="curve" smooth="yes"/>
      <point x="816.0" y="-155.6"/>
      <point x="861.0" y="-149.2"/>
      <point x="885.0" y="-144.2" type="curve"/>
      <point x="873.0" y="-104.8" type="line"/>
      <point x="849.0" y="-109.1"/>
      <point x="819.0" y="-113.2"/>
      <point x="774.0" y="-113.2" type="curve" smooth="yes"/>
      <point x="639.0" y="-113.2"/>
      <point x="546.0" y="-71.8"/>
      <point x="504.0" y="2.4" type="curve"/>
      <point x="450.0" y="0.6" type="line"/>
      <point x="492.0" y="-88.0"/>
      <point x="603.0" y="-155.6"/>
    </contour>
    <contour>
      <point x="486.0" y="681.0" type="move" name="aboveUC"/>
    </contour>
  </outline>
</glyph>
<glyph name="S" format="1">
  <advance width="774.0"/>
  <unicode hex="0053"/>
  <outline>
    <contour>
      <point x="402.0" y="-12.0" type="curve" smooth="yes"/>
      <point x="588.0" y="-12.0"/>
      <point x="711.0" y="64.4"/>
      <point x="711.0" y="165.4" type="curve" smooth="yes"/>
      <point x="711.0" y="266.2"/>
      <point x="610.5" y="306.9"/>
      <point x="501.0" y="339.8" type="curve" smooth="yes"/>
      <point x="348.0" y="384.3" type="line" smooth="yes"/>
      <point x="277.5" y="405.5"/>
      <point x="174.0" y="434.5"/>
      <point x="174.0" y="511.4" type="curve" smooth="yes"/>
      <point x="174.0" y="582.7"/>
      <point x="267.0" y="629.2"/>
      <point x="405.0" y="629.2" type="curve" smooth="yes"/>
      <point x="507.0" y="629.2"/>
      <point x="588.0" y="602.4"/>
      <point x="645.0" y="561.5" type="curve"/>
      <point x="675.0" y="592.1" type="line"/>
      <point x="618.0" y="634.9"/>
      <point x="525.0" y="671.0"/>
      <point x="405.0" y="671.0" type="curve" smooth="yes"/>
      <point x="246.0" y="671.0"/>
      <point x="126.0" y="604.3"/>
      <point x="126.0" y="508.6" type="curve" smooth="yes"/>
      <point x="126.0" y="411.0"/>
      <point x="243.0" y="370.0"/>
      <point x="327.0" y="344.7" type="curve" smooth="yes"/>
      <point x="480.0" y="299.9" type="line" smooth="yes"/>
      <point x="579.0" y="270.7"/>
      <point x="663.0" y="244.5"/>
      <point x="663.0" y="162.2" type="curve" smooth="yes"/>
      <point x="663.0" y="83.7"/>
      <point x="561.0" y="29.8"/>
      <point x="402.0" y="29.8" type="curve" smooth="yes"/>
      <point x="282.0" y="29.8"/>
      <point x="177.0" y="64.8"/>
      <point x="105.0" y="118.9" type="curve"/>
      <point x="72.0" y="87.3" type="line"/>
      <point x="147.0" y="28.8"/>
      <point x="255.0" y="-12.0"/>
    </contour>
    <contour>
      <point x="402.0" y="681.0" type="move" name="aboveUC"/>
    </contour>
    <contour>
      <point x="402.0" y="0.0" type="move" name="baseLC"/>
    </contour>
    <contour>
      <point x="402.0" y="-22.0" type="move" name="belowLC"/>
    </contour>
  </outline>
</glyph>
<glyph name="T" format="1">
  <advance width="780.0"/>
  <unicode hex="0054"/>
  <outline>
    <contour>
      <point x="366.0" y="0.0" type="line"/>
      <point x="414.0" y="0.0" type="line"/>
      <point x="414.0" y="619.4" type="line"/>
      <point x="735.0" y="619.4" type="line"/>
      <point x="735.0" y="659.0" type="line"/>
      <point x="45.0" y="659.0" type="line"/>
      <point x="45.0" y="619.4" type="line"/>
      <point x="366.0" y="619.4" type="line"/>
    </contour>
    <contour>
      <point x="387.0" y="681.0" type="move" name="aboveUC"/>
    </contour>
    <contour>
      <point x="390.0" y="0.0" type="move" name="baseLC"/>
    </contour>
    <contour>
      <point x="390.0" y="-22.0" type="move" name="belowLC"/>
    </contour>
  </outline>
</glyph>
<glyph name="U" format="1">
  <advance width="945.0"/>
  <unicode hex="0055"/>
  <outline>
    <contour>
      <point x="471.0" y="-12.0" type="curve" smooth="yes"/>
      <point x="630.0" y="-12.0"/>
      <point x="798.0" y="47.0"/>
      <point x="798.0" y="252.8" type="curve" smooth="yes"/>
      <point x="798.0" y="659.0" type="line"/>
      <point x="753.0" y="659.0" type="line"/>
      <point x="753.0" y="258.0" type="line" smooth="yes"/>
      <point x="753.0" y="82.6"/>
      <point x="618.0" y="29.8"/>
      <point x="471.0" y="29.8" type="curve" smooth="yes"/>
      <point x="327.0" y="29.8"/>
      <point x="195.0" y="82.6"/>
      <point x="195.0" y="258.0" type="curve" smooth="yes"/>
      <point x="195.0" y="659.0" type="line"/>
      <point x="147.0" y="659.0" type="line"/>
      <point x="147.0" y="252.8" type="line" smooth="yes"/>
      <point x="147.0" y="47.0"/>
      <point x="312.0" y="-12.0"/>
    </contour>
    <contour>
      <point x="471.0" y="681.0" type="move" name="aboveUC"/>
    </contour>
    <contour>
      <point x="765.0" y="669.0" type="move" name="hornLC"/>
    </contour>
    <contour>
      <point x="471.0" y="0.0" type="move" name="ogonekUC"/>
    </contour>
    <contour>
      <point x="471.0" y="-22.0" type="move" name="belowLC"/>
    </contour>
  </outline>
</glyph>
<glyph name="W" format="1">
  <advance width="1146.0"/>
  <unicode hex="0057"/>
  <outline>
    <contour>
      <point x="276.0" y="0.0" type="line"/>
      <point x="324.0" y="0.0" type="line"/>
      <point x="513.0" y="452.4" type="line"/>
      <point x="531.0" y="504.2"/>
      <point x="552.0" y="549.2"/>
      <point x="570.0" y="600.8" type="curve"/>
      <point x="576.0" y="600.8" type="line"/>
      <point x="594.0" y="549.2"/>
      <point x="612.0" y="504.2"/>
      <point x="630.0" y="452.4" type="curve"/>
      <point x="822.0" y="0.0" type="line"/>
      <point x="870.0" y="0.0" type="line"/>
      <point x="1098.0" y="659.0" type="line"/>
      <point x="1050.0" y="659.0" type="line"/>
      <point x="918.0" y="270.6" type="line"/>
      <point x="894.0" y="199.2"/>
      <point x="873.0" y="127.5"/>
      <point x="849.0" y="55.8" type="curve"/>
      <point x="843.0" y="55.8" type="line"/>
      <point x="816.0" y="127.5"/>
      <point x="789.0" y="199.3"/>
      <point x="762.0" y="270.6" type="curve"/>
      <point x="600.0" y="659.0" type="line"/>
      <point x="546.0" y="659.0" type="line"/>
      <point x="384.0" y="270.6" type="line"/>
      <point x="357.0" y="199.1"/>
      <point x="330.0" y="127.4"/>
      <point x="306.0" y="55.8" type="curve"/>
      <point x="300.0" y="55.8" type="line"/>
      <point x="276.0" y="127.4"/>
      <point x="252.0" y="199.0"/>
      <point x="228.0" y="270.6" type="curve"/>
      <point x="96.0" y="659.0" type="line"/>
      <point x="45.0" y="659.0" type="line"/>
    </contour>
    <contour>
      <point x="573.0" y="681.0" type="move" name="aboveUC"/>
    </contour>
    <contour>
      <point x="579.0" y="-22.0" type="move" name="belowLC"/>
    </contour>
  </outline>
</glyph>
<glyph name="Y" format="1">
  <advance width="654.0"/>
  <unicode hex="0059"/>
  <outline>
    <contour>
      <point x="303.0" y="0.0" type="line"/>
      <point x="351.0" y="0.0" type="line"/>
      <point x="351.0" y="267.2" type="line"/>
      <point x="648.0" y="659.0" type="line"/>
      <point x="600.0" y="659.0" type="line"/>
      <point x="441.0" y="452.8" type="line"/>
      <point x="408.0" y="404.7"/>
      <point x="369.0" y="358.8"/>
      <point x="330.0" y="310.5" type="curve"/>
      <point x="324.0" y="310.5" type="line"/>
      <point x="285.0" y="358.8"/>
      <point x="252.0" y="404.7"/>
      <point x="216.0" y="452.8" type="curve"/>
      <point x="57.0" y="659.0" type="line"/>
      <point x="6.0" y="659.0" type="line"/>
      <point x="303.0" y="267.2" type="line"/>
    </contour>
    <contour>
      <point x="327.0" y="681.0" type="move" name="aboveUC"/>
    </contour>
    <contour>
      <point x="330.0" y="-22.0" type="move" name="belowLC"/>
    </contour>
  </outline>
</glyph>
<glyph name="Z" format="1">
  <advance width="807.0"/>
  <unicode hex="005A"/>
  <outline>
    <contour>
      <point x="78.0" y="0.0" type="line"/>
      <point x="732.0" y="0.0" type="line"/>
      <point x="732.0" y="39.6" type="line"/>
      <point x="138.0" y="39.6" type="line"/>
      <point x="726.0" y="632.4" type="line"/>
      <point x="726.0" y="659.0" type="line"/>
      <point x="129.0" y="659.0" type="line"/>
      <point x="129.0" y="619.4" type="line"/>
      <point x="666.0" y="619.4" type="line"/>
      <point x="78.0" y="26.6" type="line"/>
    </contour>
    <contour>
      <point x="417.0" y="681.0" type="move" name="aboveUC"/>
    </contour>
    <contour>
      <point x="423.0" y="-22.0" type="move" name="belowLC"/>
    </contour>
  </outline>
</glyph>
<glyph name="asciicircum" format="1">
  <advance width="708.0"/>
  <unicode hex="005E"/>
  <outline>
    <contour>
      <point x="102.0" y="289.8" type="line"/>
      <point x="150.0" y="289.8" type="line"/>
      <point x="273.0" y="493.4" type="line"/>
      <point x="351.0" y="625.8" type="line"/>
      <point x="357.0" y="625.8" type="line"/>
      <point x="435.0" y="493.4" type="line"/>
      <point x="558.0" y="289.8" type="line"/>
      <point x="606.0" y="289.8" type="line"/>
      <point x="381.0" y="670.0" type="line"/>
      <point x="327.0" y="670.0" type="line"/>
    </contour>
  </outline>
</glyph>
<glyph name="e" format="1">
  <advance width="717.0"/>
  <unicode hex="0065"/>
  <outline>
    <contour>
      <point x="408.0" y="-12.0" type="curve" smooth="yes"/>
      <point x="516.0" y="-12.0"/>
      <point x="576.0" y="11.6"/>
      <point x="630.0" y="35.2" type="curve"/>
      <point x="609.0" y="68.8" type="line"/>
      <point x="555.0" y="43.4"/>
      <point x="492.0" y="26.2"/>
      <point x="411.0" y="26.2" type="curve" smooth="yes"/>
      <point x="240.0" y="26.2"/>
      <point x="129.0" y="112.8"/>
      <point x="129.0" y="234.0" type="curve"/>
      <point x="657.0" y="234.0" type="line"/>
      <point x="660.0" y="246.0"/>
      <point x="660.0" y="258.0"/>
      <point x="660.0" y="270.0" type="curve" smooth="yes"/>
      <point x="660.0" y="411.2"/>
      <point x="555.0" y="492.2"/>
      <point x="390.0" y="492.2" type="curve" smooth="yes"/>
      <point x="231.0" y="492.2"/>
      <point x="81.0" y="395.8"/>
      <point x="81.0" y="239.2" type="curve" smooth="yes"/>
      <point x="81.0" y="82.2"/>
      <point x="228.0" y="-12.0"/>
    </contour>
    <contour>
      <point x="129.0" y="270.4" type="line"/>
      <point x="144.0" y="385.2"/>
      <point x="261.0" y="454.0"/>
      <point x="390.0" y="454.0" type="curve" smooth="yes"/>
      <point x="525.0" y="454.0"/>
      <point x="615.0" y="393.0"/>
      <point x="615.0" y="270.4" type="curve"/>
    </contour>
    <contour>
      <point x="573.0" y="0.0" type="move" name="ogonekLC"/>
    </contour>
    <contour>
      <point x="390.0" y="504.0" type="move" name="aboveLC"/>
    </contour>
    <contour>
      <point x="384.0" y="-22.0" type="move" name="belowLC"/>
    </contour>
  </outline>
</glyph>
<glyph name="f" format="1">
  <advance width="378.0"/>
  <unicode hex="0066"/>
  <outline>
    <contour>
      <point x="150.0" y="0.0" type="line"/>
      <point x="195.0" y="0.0" type="line"/>
      <point x="195.0" y="584.0" type="line" smooth="yes"/>
      <point x="195.0" y="653.5"/>
      <point x="231.0" y="692.8"/>
      <point x="312.0" y="692.8" type="curve" smooth="yes"/>
      <point x="339.0" y="692.8"/>
      <point x="369.0" y="688.8"/>
      <point x="399.0" y="679.2" type="curve"/>
      <point x="414.0" y="715.2" type="line"/>
      <point x="381.0" y="725.0"/>
      <point x="345.0" y="731.4"/>
      <point x="315.0" y="731.4" type="curve" smooth="yes"/>
      <point x="213.0" y="731.4"/>
      <point x="150.0" y="682.3"/>
      <point x="150.0" y="587.0" type="curve" smooth="yes"/>
    </contour>
    <contour>
      <point x="51.0" y="441.6" type="line"/>
      <point x="366.0" y="441.6" type="line"/>
      <point x="366.0" y="480.2" type="line"/>
      <point x="150.0" y="480.2" type="line"/>
      <point x="51.0" y="476.0" type="line"/>
    </contour>
    <contour>
      <point x="318.0" y="740.1" type="move" name="aboveLC"/>
    </contour>
    <contour>
      <point x="174.0" y="-22.0" type="move" name="belowLC"/>
    </contour>
  </outline>
</glyph>
<glyph name="k" format="1">
  <advance width="678.0"/>
  <unicode hex="006B"/>
  <outline>
    <contour>
      <point x="144.0" y="0.0" type="line"/>
      <point x="189.0" y="0.0" type="line"/>
      <point x="189.0" y="130.8" type="line"/>
      <point x="360.0" y="257.2" type="line"/>
      <point x="609.0" y="0.0" type="line"/>
      <point x="660.0" y="0.0" type="line"/>
      <point x="387.0" y="290.2" type="line"/>
      <point x="618.0" y="480.2" type="line"/>
      <point x="564.0" y="480.2" type="line"/>
      <point x="192.0" y="189.2" type="line"/>
      <point x="189.0" y="189.2" type="line"/>
      <point x="189.0" y="719.4" type="line"/>
      <point x="144.0" y="719.4" type="line"/>
    </contour>
    <contour>
      <point x="171.0" y="730.0" type="move" name="aboveLC"/>
    </contour>
    <contour>
      <point x="378.0" y="-22.0" type="move" name="belowLC"/>
    </contour>
  </outline>
</glyph>
<glyph name="m" format="1">
  <advance width="1209.0"/>
  <unicode hex="006D"/>
  <outline>
    <contour>
      <point x="144.0" y="0.0" type="line"/>
      <point x="189.0" y="0.0" type="line"/>
      <point x="189.0" y="362.2" type="line"/>
      <point x="273.0" y="422.4"/>
      <point x="348.0" y="452.4"/>
      <point x="417.0" y="452.4" type="curve" smooth="yes"/>
      <point x="534.0" y="452.4"/>
      <point x="588.0" y="404.0"/>
      <point x="588.0" y="302.2" type="curve" smooth="yes"/>
      <point x="588.0" y="0.0" type="line"/>
      <point x="633.0" y="0.0" type="line"/>
      <point x="633.0" y="362.2" type="line"/>
      <point x="717.0" y="422.4"/>
      <point x="789.0" y="452.4"/>
      <point x="861.0" y="452.4" type="curve" smooth="yes"/>
      <point x="978.0" y="452.4"/>
      <point x="1032.0" y="404.0"/>
      <point x="1032.0" y="302.2" type="curve" smooth="yes"/>
      <point x="1032.0" y="0.0" type="line"/>
      <point x="1077.0" y="0.0" type="line"/>
      <point x="1077.0" y="308.0" type="line" smooth="yes"/>
      <point x="1077.0" y="432.0"/>
      <point x="1005.0" y="492.2"/>
      <point x="864.0" y="492.2" type="curve" smooth="yes"/>
      <point x="783.0" y="492.2"/>
      <point x="702.0" y="454.2"/>
      <point x="618.0" y="394.2" type="curve"/>
      <point x="594.0" y="453.4"/>
      <point x="537.0" y="492.2"/>
      <point x="420.0" y="492.2" type="curve" smooth="yes"/>
      <point x="342.0" y="492.2"/>
      <point x="258.0" y="454.6"/>
      <point x="192.0" y="405.7" type="curve"/>
      <point x="189.0" y="405.7" type="line"/>
      <point x="183.0" y="480.2" type="line"/>
      <point x="144.0" y="480.2" type="line"/>
    </contour>
    <contour>
      <point x="606.0" y="504.0" type="move" name="aboveLC"/>
    </contour>
    <contour>
      <point x="621.0" y="-22.0" type="move" name="belowLC"/>
    </contour>
  </outline>
</glyph>
<glyph name="n" format="1">
  <advance width="789.0"/>
  <unicode hex="006E"/>
  <outline>
    <contour>
      <point x="144.0" y="0.0" type="line"/>
      <point x="189.0" y="0.0" type="line"/>
      <point x="189.0" y="362.2" type="line"/>
      <point x="282.0" y="422.2"/>
      <point x="348.0" y="452.4"/>
      <point x="438.0" y="452.4" type="curve" smooth="yes"/>
      <point x="561.0" y="452.4"/>
      <point x="612.0" y="404.0"/>
      <point x="612.0" y="302.2" type="curve" smooth="yes"/>
      <point x="612.0" y="0.0" type="line"/>
      <point x="657.0" y="0.0" type="line"/>
      <point x="657.0" y="308.0" type="line" smooth="yes"/>
      <point x="657.0" y="432.0"/>
      <point x="588.0" y="492.2"/>
      <point x="441.0" y="492.2" type="curve" smooth="yes"/>
      <point x="342.0" y="492.2"/>
      <point x="267.0" y="454.6"/>
      <point x="192.0" y="405.8" type="curve"/>
      <point x="189.0" y="405.8" type="line"/>
      <point x="183.0" y="480.2" type="line"/>
      <point x="144.0" y="480.2" type="line"/>
    </contour>
    <contour>
      <point x="417.0" y="504.0" type="move" name="aboveLC"/>
    </contour>
    <contour>
      <point x="402.0" y="-22.0" type="move" name="belowLC"/>
    </contour>
  </outline>
</glyph>
<glyph name="q" format="1">
  <advance width="810.0"/>
  <unicode hex="0071"/>
  <outline>
    <contour>
      <point x="621.0" y="-217.4" type="line"/>
      <point x="666.0" y="-217.4" type="line"/>
      <point x="666.0" y="480.2" type="line"/>
      <point x="627.0" y="480.2" type="line"/>
      <point x="621.0" y="435.6" type="line"/>
      <point x="618.0" y="435.6" type="line"/>
      <point x="549.0" y="470.6"/>
      <point x="489.0" y="492.2"/>
      <point x="402.0" y="492.2" type="curve" smooth="yes"/>
      <point x="228.0" y="492.2"/>
      <point x="81.0" y="394.2"/>
      <point x="81.0" y="239.2" type="curve" smooth="yes"/>
      <point x="81.0" y="77.2"/>
      <point x="198.0" y="-12.0"/>
      <point x="378.0" y="-12.0" type="curve" smooth="yes"/>
      <point x="477.0" y="-12.0"/>
      <point x="558.0" y="22.4"/>
      <point x="624.0" y="63.2" type="curve"/>
      <point x="621.0" y="-32.1" type="line"/>
    </contour>
    <contour>
      <point x="381.0" y="27.2" type="curve" smooth="yes"/>
      <point x="219.0" y="27.2"/>
      <point x="129.0" y="111.6"/>
      <point x="129.0" y="239.4" type="curve" smooth="yes"/>
      <point x="129.0" y="359.8"/>
      <point x="246.0" y="453.0"/>
      <point x="399.0" y="453.0" type="curve" smooth="yes"/>
      <point x="474.0" y="453.0"/>
      <point x="540.0" y="436.2"/>
      <point x="621.0" y="391.2" type="curve"/>
      <point x="621.0" y="106.4" type="line"/>
      <point x="540.0" y="55.0"/>
      <point x="465.0" y="27.2"/>
    </contour>
    <contour>
      <point x="399.0" y="504.0" type="move" name="aboveLC"/>
    </contour>
    <contour>
      <point x="633.0" y="-218.0" type="move" name="belowLC"/>
    </contour>
  </outline>
</glyph>
<glyph name="v" format="1">
  <advance width="633.0"/>
  <unicode hex="0076"/>
  <outline>
    <contour>
      <point x="291.0" y="0.0" type="line"/>
      <point x="345.0" y="0.0" type="line"/>
      <point x="615.0" y="480.2" type="line"/>
      <point x="567.0" y="480.2" type="line"/>
      <point x="396.0" y="179.4" type="line" smooth="yes"/>
      <point x="372.0" y="133.0"/>
      <point x="345.0" y="84.6"/>
      <point x="321.0" y="41.4" type="curve"/>
      <point x="315.0" y="41.4" type="line"/>
      <point x="291.0" y="84.6"/>
      <point x="264.0" y="133.0"/>
      <point x="240.0" y="179.4" type="curve" smooth="yes"/>
      <point x="69.0" y="480.2" type="line"/>
      <point x="18.0" y="480.2" type="line"/>
    </contour>
    <contour>
      <point x="318.0" y="504.0" type="move" name="aboveLC"/>
    </contour>
    <contour>
      <point x="318.0" y="-22.0" type="move" name="belowLC"/>
    </contour>
  </outline>
</glyph>
<glyph name="w" format="1">
  <advance width="1008.0"/>
  <unicode hex="0077"/>
  <outline>
    <contour>
      <point x="252.0" y="0.0" type="line"/>
      <point x="309.0" y="0.0" type="line"/>
      <point x="441.0" y="296.4" type="line"/>
      <point x="465.0" y="342.4"/>
      <point x="483.0" y="388.4"/>
      <point x="501.0" y="435.3" type="curve"/>
      <point x="507.0" y="435.3" type="line"/>
      <point x="528.0" y="388.4"/>
      <point x="543.0" y="344.2"/>
      <point x="564.0" y="298.2" type="curve"/>
      <point x="699.0" y="0.0" type="line"/>
      <point x="762.0" y="0.0" type="line"/>
      <point x="972.0" y="480.2" type="line"/>
      <point x="924.0" y="480.2" type="line"/>
      <point x="789.0" y="169.4" type="line"/>
      <point x="771.0" y="124.8"/>
      <point x="753.0" y="83.8"/>
      <point x="735.0" y="40.8" type="curve"/>
      <point x="729.0" y="40.8" type="line"/>
      <point x="711.0" y="83.8"/>
      <point x="693.0" y="124.8"/>
      <point x="675.0" y="169.4" type="curve"/>
      <point x="537.0" y="480.2" type="line"/>
      <point x="474.0" y="480.2" type="line"/>
      <point x="336.0" y="169.4" type="line"/>
      <point x="318.0" y="125.0"/>
      <point x="300.0" y="83.8"/>
      <point x="282.0" y="40.8" type="curve"/>
      <point x="276.0" y="40.8" type="line"/>
      <point x="261.0" y="83.8"/>
      <point x="243.0" y="124.8"/>
      <point x="225.0" y="169.4" type="curve"/>
      <point x="87.0" y="480.2" type="line"/>
      <point x="36.0" y="480.2" type="line"/>
    </contour>
    <contour>
      <point x="504.0" y="504.0" type="move" name="aboveLC"/>
    </contour>
    <contour>
      <point x="504.0" y="-22.0" type="move" name="belowLC"/>
    </contour>
  </outline>
</glyph>
<glyph name="x" format="1">
  <advance width="588.0"/>
  <unicode hex="0078"/>
  <outline>
    <contour>
      <point x="21.0" y="0.0" type="line"/>
      <point x="69.0" y="0.0" type="line"/>
      <point x="201.0" y="131.2" type="line"/>
      <point x="231.0" y="161.1"/>
      <point x="258.0" y="191.0"/>
      <point x="288.0" y="219.0" type="curve"/>
      <point x="294.0" y="219.0" type="line"/>
      <point x="324.0" y="191.0"/>
      <point x="354.0" y="161.0"/>
      <point x="381.0" y="131.2" type="curve"/>
      <point x="516.0" y="0.0" type="line"/>
      <point x="567.0" y="0.0" type="line"/>
      <point x="321.0" y="247.2" type="line"/>
      <point x="546.0" y="480.2" type="line"/>
      <point x="498.0" y="480.2" type="line"/>
      <point x="378.0" y="358.0" type="line"/>
      <point x="351.0" y="331.8"/>
      <point x="327.0" y="305.4"/>
      <point x="300.0" y="279.2" type="curve"/>
      <point x="294.0" y="279.2" type="line"/>
      <point x="267.0" y="305.4"/>
      <point x="240.0" y="331.8"/>
      <point x="216.0" y="358.0" type="curve"/>
      <point x="93.0" y="480.2" type="line"/>
      <point x="42.0" y="480.2" type="line"/>
      <point x="267.0" y="251.0" type="line"/>
    </contour>
    <contour>
      <point x="294.0" y="504.0" type="move" name="aboveLC"/>
    </contour>
    <contour>
      <point x="294.0" y="-22.0" type="move" name="belowLC"/>
    </contour>
  </outline>
</glyph>
<glyph name="z" format="1">
  <advance width="594.0"/>
  <unicode hex="007A"/>
  <outline>
    <contour>
      <point x="39.0" y="0.0" type="line"/>
      <point x="555.0" y="0.0" type="line"/>
      <point x="555.0" y="38.6" type="line"/>
      <point x="99.0" y="38.6" type="line"/>
      <point x="540.0" y="456.6" type="line"/>
      <point x="540.0" y="480.2" type="line"/>
      <point x="87.0" y="480.2" type="line"/>
      <point x="87.0" y="441.6" type="line"/>
      <point x="480.0" y="441.6" type="line"/>
      <point x="39.0" y="23.6" type="line"/>
    </contour>
    <contour>
      <point x="324.0" y="504.0" type="move" name="aboveLC"/>
    </contour>
    <contour>
      <point x="321.0" y="-22.0" type="move" name="belowLC"/>
    </contour>
  </outline>
</glyph>
<glyph name="exclamdown" format="1">
  <advance width="372.0"/>
  <unicode hex="00A1"/>
  <outline>
    <contour>
      <point x="162.0" y="-189.8" type="line"/>
      <point x="210.0" y="-189.8" type="line"/>
      <point x="210.0" y="-119.2" type="line"/>
      <point x="204.0" y="301.0" type="line"/>
      <point x="168.0" y="301.0" type="line"/>
      <point x="162.0" y="-119.2" type="line"/>
    </contour>
    <contour>
      <point x="186.0" y="401.2" type="curve" smooth="yes"/>
      <point x="213.0" y="401.2"/>
      <point x="240.0" y="418.4"/>
      <point x="240.0" y="447.6" type="curve" smooth="yes"/>
      <point x="240.0" y="475.0"/>
      <point x="213.0" y="492.2"/>
      <point x="186.0" y="492.2" type="curve" smooth="yes"/>
      <point x="159.0" y="492.2"/>
      <point x="132.0" y="475.0"/>
      <point x="132.0" y="447.6" type="curve" smooth="yes"/>
      <point x="132.0" y="418.4"/>
      <point x="159.0" y="401.2"/>
    </contour>
  </outline>
</glyph>
<glyph name="cent" format="1">
  <advance width="708.0"/>
  <unicode hex="00A2"/>
  <outline>
    <contour>
      <point x="414.0" y="80.0" type="curve" smooth="yes"/>
      <point x="507.0" y="80.0"/>
      <point x="582.0" y="107.0"/>
      <point x="642.0" y="143.8" type="curve"/>
      <point x="615.0" y="172.6" type="line"/>
      <point x="564.0" y="143.1"/>
      <point x="495.0" y="119.0"/>
      <point x="414.0" y="119.0" type="curve" smooth="yes"/>
      <point x="249.0" y="119.0"/>
      <point x="141.0" y="195.8"/>
      <point x="141.0" y="311.4" type="curve" smooth="yes"/>
      <point x="141.0" y="427.0"/>
      <point x="261.0" y="503.8"/>
      <point x="414.0" y="503.8" type="curve" smooth="yes"/>
      <point x="489.0" y="503.8"/>
      <point x="549.0" y="483.4"/>
      <point x="597.0" y="454.6" type="curve"/>
      <point x="624.0" y="483.2" type="line"/>
      <point x="576.0" y="513.6"/>
      <point x="513.0" y="542.8"/>
      <point x="414.0" y="542.8" type="curve" smooth="yes"/>
      <point x="243.0" y="542.8"/>
      <point x="93.0" y="461.2"/>
      <point x="93.0" y="311.4" type="curve" smooth="yes"/>
      <point x="93.0" y="163.4"/>
      <point x="231.0" y="80.0"/>
    </contour>
    <contour>
      <point x="378.0" y="-27.8" type="line"/>
      <point x="420.0" y="-27.8" type="line"/>
      <point x="420.0" y="652.4" type="line"/>
      <point x="378.0" y="652.4" type="line"/>
    </contour>
  </outline>
</glyph>
<glyph name="sterling" format="1">
  <advance width="708.0"/>
  <unicode hex="00A3"/>
  <outline>
    <contour>
      <point x="87.0" y="0.0" type="line"/>
      <point x="627.0" y="0.0" type="line"/>
      <point x="627.0" y="39.6" type="line"/>
      <point x="177.0" y="39.6" type="line"/>
      <point x="177.0" y="43.6" type="line"/>
      <point x="249.0" y="88.4"/>
      <point x="291.0" y="137.9"/>
      <point x="291.0" y="221.0" type="curve" smooth="yes"/>
      <point x="291.0" y="322.6"/>
      <point x="216.0" y="394.9"/>
      <point x="216.0" y="481.4" type="curve" smooth="yes"/>
      <point x="216.0" y="554.2"/>
      <point x="282.0" y="612.4"/>
      <point x="411.0" y="612.4" type="curve" smooth="yes"/>
      <point x="495.0" y="612.4"/>
      <point x="549.0" y="586.0"/>
      <point x="591.0" y="552.8" type="curve"/>
      <point x="624.0" y="580.0" type="line"/>
      <point x="582.0" y="618.0"/>
      <point x="516.0" y="651.4"/>
      <point x="414.0" y="651.4" type="curve" smooth="yes"/>
      <point x="261.0" y="651.4"/>
      <point x="168.0" y="585.6"/>
      <point x="168.0" y="480.6" type="curve" smooth="yes"/>
      <point x="168.0" y="392.3"/>
      <point x="246.0" y="311.7"/>
      <point x="246.0" y="221.2" type="curve" smooth="yes"/>
      <point x="246.0" y="144.0"/>
      <point x="201.0" y="68.8"/>
      <point x="87.0" y="26.8" type="curve"/>
    </contour>
    <contour>
      <point x="81.0" y="293.0" type="line"/>
      <point x="519.0" y="293.0" type="line"/>
      <point x="519.0" y="328.6" type="line"/>
      <point x="180.0" y="328.6" type="line"/>
      <point x="81.0" y="326.2" type="line"/>
    </contour>
  </outline>
</glyph>
<glyph name="currency" format="1">
  <advance width="708.0"/>
  <unicode hex="00A4"/>
  <outline>
    <contour>
      <point x="78.0" y="113.8" type="line"/>
      <point x="175.5" y="182.1" type="line"/>
      <point x="223.5" y="152.9"/>
      <point x="286.5" y="137.0"/>
      <point x="354.0" y="137.0" type="curve" smooth="yes"/>
      <point x="420.0" y="137.0"/>
      <point x="484.5" y="152.9"/>
      <point x="531.0" y="182.1" type="curve"/>
      <point x="630.0" y="113.8" type="line"/>
      <point x="660.0" y="142.1" type="line"/>
      <point x="561.0" y="209.3" type="line"/>
      <point x="595.5" y="241.1"/>
      <point x="618.0" y="281.6"/>
      <point x="618.0" y="328.2" type="curve" smooth="yes"/>
      <point x="618.0" y="376.5"/>
      <point x="595.5" y="417.9"/>
      <point x="559.5" y="449.6" type="curve"/>
      <point x="660.0" y="517.7" type="line"/>
      <point x="630.0" y="546.0" type="line"/>
      <point x="531.0" y="476.9" type="line"/>
      <point x="483.0" y="505.2"/>
      <point x="420.0" y="521.2"/>
      <point x="354.0" y="521.2" type="curve" smooth="yes"/>
      <point x="286.5" y="521.2"/>
      <point x="223.5" y="505.2"/>
      <point x="177.0" y="476.9" type="curve"/>
      <point x="78.0" y="546.0" type="line"/>
      <point x="48.0" y="517.7" type="line"/>
      <point x="147.0" y="449.6" type="line"/>
      <point x="111.0" y="417.9"/>
      <point x="90.0" y="376.5"/>
      <point x="90.0" y="328.2" type="curve" smooth="yes"/>
      <point x="90.0" y="281.6"/>
      <point x="111.0" y="241.1"/>
      <point x="147.0" y="209.3" type="curve"/>
      <point x="48.0" y="142.1" type="line"/>
    </contour>
    <contour>
      <point x="354.0" y="174.0" type="curve" smooth="yes"/>
      <point x="237.0" y="174.0"/>
      <point x="138.0" y="236.6"/>
      <point x="138.0" y="328.2" type="curve" smooth="yes"/>
      <point x="138.0" y="419.8"/>
      <point x="237.0" y="484.2"/>
      <point x="354.0" y="484.2" type="curve" smooth="yes"/>
      <point x="471.0" y="484.2"/>
      <point x="570.0" y="419.8"/>
      <point x="570.0" y="328.2" type="curve" smooth="yes"/>
      <point x="570.0" y="236.6"/>
      <point x="471.0" y="174.0"/>
    </contour>
  </outline>
</glyph>
<glyph name="copyright" format="1">
  <advance width="1110.0"/>
  <unicode hex="00A9"/>
  <outline>
    <contour>
      <point x="555.0" y="-11.6" type="curve" smooth="yes"/>
      <point x="813.0" y="-11.6"/>
      <point x="1032.0" y="119.8"/>
      <point x="1032.0" y="322.4" type="curve" smooth="yes"/>
      <point x="1032.0" y="523.1"/>
      <point x="813.0" y="652.4"/>
      <point x="555.0" y="652.4" type="curve" smooth="yes"/>
      <point x="297.0" y="652.4"/>
      <point x="78.0" y="523.2"/>
      <point x="78.0" y="322.4" type="curve" smooth="yes"/>
      <point x="78.0" y="119.8"/>
      <point x="297.0" y="-11.6"/>
    </contour>
    <contour>
      <point x="555.0" y="18.6" type="curve" smooth="yes"/>
      <point x="324.0" y="18.6"/>
      <point x="123.0" y="140.8"/>
      <point x="123.0" y="322.4" type="curve" smooth="yes"/>
      <point x="123.0" y="502.2"/>
      <point x="324.0" y="622.2"/>
      <point x="555.0" y="622.2" type="curve" smooth="yes"/>
      <point x="786.0" y="622.2"/>
      <point x="987.0" y="502.2"/>
      <point x="987.0" y="322.4" type="curve" smooth="yes"/>
      <point x="987.0" y="140.8"/>
      <point x="786.0" y="18.6"/>
    </contour>
    <contour>
      <point x="561.0" y="124.4" type="curve" smooth="yes"/>
      <point x="660.0" y="124.4"/>
      <point x="714.0" y="150.7"/>
      <point x="768.0" y="183.4" type="curve"/>
      <point x="744.0" y="211.0" type="line"/>
      <point x="696.0" y="183.1"/>
      <point x="639.0" y="161.2"/>
      <point x="564.0" y="161.2" type="curve" smooth="yes"/>
      <point x="438.0" y="161.2"/>
      <point x="354.0" y="222.6"/>
      <point x="354.0" y="322.2" type="curve" smooth="yes"/>
      <point x="354.0" y="412.0"/>
      <point x="444.0" y="472.2"/>
      <point x="567.0" y="472.2" type="curve" smooth="yes"/>
      <point x="630.0" y="472.2"/>
      <point x="672.0" y="456.6"/>
      <point x="720.0" y="427.6" type="curve"/>
      <point x="747.0" y="454.4" type="line"/>
      <point x="699.0" y="486.4"/>
      <point x="648.0" y="509.0"/>
      <point x="570.0" y="509.0" type="curve" smooth="yes"/>
      <point x="429.0" y="509.0"/>
      <point x="303.0" y="438.4"/>
      <point x="303.0" y="322.2" type="curve" smooth="yes"/>
      <point x="303.0" y="196.8"/>
      <point x="423.0" y="124.4"/>
    </contour>
  </outline>
</glyph>
<glyph name="degree" format="1">
  <advance width="456.0"/>
  <unicode hex="00B0"/>
  <outline>
    <contour>
      <point x="228.0" y="447.2" type="curve" smooth="yes"/>
      <point x="312.0" y="447.2"/>
      <point x="393.0" y="491.4"/>
      <point x="393.0" y="564.8" type="curve" smooth="yes"/>
      <point x="393.0" y="640.0"/>
      <point x="312.0" y="684.2"/>
      <point x="228.0" y="684.2" type="curve" smooth="yes"/>
      <point x="144.0" y="684.2"/>
      <point x="63.0" y="640.0"/>
      <point x="63.0" y="564.8" type="curve" smooth="yes"/>
      <point x="63.0" y="491.4"/>
      <point x="144.0" y="447.2"/>
    </contour>
    <contour>
      <point x="228.0" y="478.6" type="curve" smooth="yes"/>
      <point x="156.0" y="478.6"/>
      <point x="105.0" y="515.6"/>
      <point x="105.0" y="564.8" type="curve" smooth="yes"/>
      <point x="105.0" y="615.8"/>
      <point x="156.0" y="652.8"/>
      <point x="228.0" y="652.8" type="curve" smooth="yes"/>
      <point x="300.0" y="652.8"/>
      <point x="351.0" y="615.8"/>
      <point x="351.0" y="564.8" type="curve" smooth="yes"/>
      <point x="351.0" y="515.6"/>
      <point x="300.0" y="478.6"/>
    </contour>
  </outline>
</glyph>
<glyph name="questiondown" format="1">
  <advance width="591.0"/>
  <unicode hex="00BF"/>
  <outline>
    <contour>
      <point x="303.0" y="-201.8" type="curve" smooth="yes"/>
      <point x="405.0" y="-201.8"/>
      <point x="480.0" y="-167.4"/>
      <point x="537.0" y="-124.0" type="curve"/>
      <point x="507.0" y="-99.2" type="line"/>
      <point x="456.0" y="-139.4"/>
      <point x="381.0" y="-162.8"/>
      <point x="306.0" y="-162.8" type="curve" smooth="yes"/>
      <point x="180.0" y="-162.8"/>
      <point x="126.0" y="-107.4"/>
      <point x="126.0" y="-46.2" type="curve" smooth="yes"/>
      <point x="126.0" y="77.2"/>
      <point x="378.0" y="135.0"/>
      <point x="345.0" y="301.0" type="curve"/>
      <point x="303.0" y="301.0" type="line"/>
      <point x="333.0" y="148.7"/>
      <point x="78.0" y="87.0"/>
      <point x="78.0" y="-49.2" type="curve" smooth="yes"/>
      <point x="78.0" y="-135.6"/>
      <point x="159.0" y="-201.8"/>
    </contour>
    <contour>
      <point x="318.0" y="401.2" type="curve" smooth="yes"/>
      <point x="345.0" y="401.2"/>
      <point x="372.0" y="418.4"/>
      <point x="372.0" y="447.6" type="curve" smooth="yes"/>
      <point x="372.0" y="475.0"/>
      <point x="345.0" y="492.2"/>
      <point x="318.0" y="492.2" type="curve" smooth="yes"/>
      <point x="291.0" y="492.2"/>
      <point x="264.0" y="475.0"/>
      <point x="264.0" y="447.6" type="curve" smooth="yes"/>
      <point x="264.0" y="418.4"/>
      <point x="291.0" y="401.2"/>
    </contour>
  </outline>
</glyph>
<glyph name="germandbls" format="1">
  <advance width="795.0"/>
  <unicode hex="00DF"/>
  <outline>
    <contour>
      <point x="540.0" y="-12.0" type="curve" smooth="yes"/>
      <point x="660.0" y="-12.0"/>
      <point x="750.0" y="47.8"/>
      <point x="750.0" y="127.4" type="curve" smooth="yes"/>
      <point x="750.0" y="295.4"/>
      <point x="429.0" y="261.6"/>
      <point x="429.0" y="376.8" type="curve" smooth="yes"/>
      <point x="429.0" y="456.8"/>
      <point x="582.0" y="492.0"/>
      <point x="582.0" y="595.0" type="curve" smooth="yes"/>
      <point x="582.0" y="670.4"/>
      <point x="507.0" y="729.4"/>
      <point x="387.0" y="729.4" type="curve" smooth="yes"/>
      <point x="243.0" y="729.4"/>
      <point x="144.0" y="654.6"/>
      <point x="144.0" y="531.8" type="curve" smooth="yes"/>
      <point x="144.0" y="0.0" type="line"/>
      <point x="189.0" y="0.0" type="line"/>
      <point x="189.0" y="517.4" type="line" smooth="yes"/>
      <point x="189.0" y="635.8"/>
      <point x="267.0" y="690.8"/>
      <point x="384.0" y="690.8" type="curve" smooth="yes"/>
      <point x="483.0" y="690.8"/>
      <point x="534.0" y="648.6"/>
      <point x="534.0" y="591.2" type="curve" smooth="yes"/>
      <point x="534.0" y="501.4"/>
      <point x="381.0" y="470.0"/>
      <point x="381.0" y="372.8" type="curve" smooth="yes"/>
      <point x="381.0" y="228.6"/>
      <point x="702.0" y="264.0"/>
      <point x="702.0" y="124.8" type="curve" smooth="yes"/>
      <point x="702.0" y="74.0"/>
      <point x="648.0" y="25.8"/>
      <point x="540.0" y="25.8" type="curve" smooth="yes"/>
      <point x="474.0" y="25.8"/>
      <point x="423.0" y="41.2"/>
      <point x="366.0" y="72.4" type="curve"/>
      <point x="339.0" y="39.2" type="line"/>
      <point x="393.0" y="7.6"/>
      <point x="462.0" y="-12.0"/>
    </contour>
  </outline>
</glyph>
<glyph name="ae" format="1">
  <advance width="1176.0"/>
  <unicode hex="00E6"/>
  <outline>
    <contour>
      <point x="309.0" y="-12.0" type="curve" smooth="yes"/>
      <point x="399.0" y="-12.0"/>
      <point x="522.0" y="25.7"/>
      <point x="615.0" y="87.0" type="curve"/>
      <point x="666.0" y="37.5"/>
      <point x="741.0" y="-12.0"/>
      <point x="873.0" y="-12.0" type="curve"/>
      <point x="981.0" y="-12.0"/>
      <point x="1035.0" y="11.6"/>
      <point x="1089.0" y="35.2" type="curve"/>
      <point x="1068.0" y="69.6" type="line"/>
      <point x="1014.0" y="44.2"/>
      <point x="957.0" y="26.6"/>
      <point x="876.0" y="26.6" type="curve" smooth="yes"/>
      <point x="723.0" y="26.6"/>
      <point x="606.0" y="113.2"/>
      <point x="609.0" y="234.0" type="curve"/>
      <point x="1116.0" y="234.0" type="line"/>
      <point x="1119.0" y="246.0"/>
      <point x="1119.0" y="257.6"/>
      <point x="1119.0" y="269.6" type="curve" smooth="yes"/>
      <point x="1119.0" y="410.8"/>
      <point x="1020.0" y="492.2"/>
      <point x="855.0" y="492.2" type="curve"/>
      <point x="747.0" y="492.2"/>
      <point x="651.0" y="445.0"/>
      <point x="600.0" y="372.4" type="curve"/>
      <point x="579.0" y="444.8"/>
      <point x="510.0" y="492.2"/>
      <point x="390.0" y="492.2" type="curve" smooth="yes"/>
      <point x="282.0" y="492.2"/>
      <point x="183.0" y="453.8"/>
      <point x="138.0" y="429.8" type="curve"/>
      <point x="162.0" y="397.0" type="line"/>
      <point x="207.0" y="421.4"/>
      <point x="294.0" y="453.4"/>
      <point x="387.0" y="453.4" type="curve" smooth="yes"/>
      <point x="537.0" y="453.4"/>
      <point x="567.0" y="374.4"/>
      <point x="564.0" y="300.7" type="curve"/>
      <point x="252.0" y="277.1"/>
      <point x="102.0" y="226.2"/>
      <point x="102.0" y="118.6" type="curve" smooth="yes"/>
      <point x="102.0" y="29.4"/>
      <point x="198.0" y="-12.0"/>
    </contour>
    <contour>
      <point x="312.0" y="26.4" type="curve" smooth="yes"/>
      <point x="225.0" y="26.4"/>
      <point x="150.0" y="52.9"/>
      <point x="150.0" y="121.8" type="curve" smooth="yes"/>
      <point x="150.0" y="198.5"/>
      <point x="264.0" y="244.2"/>
      <point x="564.0" y="267.0" type="curve"/>
      <point x="564.0" y="239.9" type="line" smooth="yes"/>
      <point x="564.0" y="195.0"/>
      <point x="576.0" y="148.2"/>
      <point x="597.0" y="119.4" type="curve"/>
      <point x="510.0" y="60.0"/>
      <point x="393.0" y="26.4"/>
    </contour>
    <contour>
      <point x="609.0" y="267.8" type="line"/>
      <point x="624.0" y="378.0"/>
      <point x="729.0" y="454.0"/>
      <point x="855.0" y="454.0" type="curve" smooth="yes"/>
      <point x="990.0" y="454.0"/>
      <point x="1074.0" y="391.0"/>
      <point x="1074.0" y="267.8" type="curve"/>
    </contour>
    <contour>
      <point x="621.0" y="504.0" type="move" name="aboveLC"/>
    </contour>
    <contour>
      <point x="642.0" y="-22.0" type="move" name="belowLC"/>
    </contour>
  </outline>
</glyph>
<glyph name="eth" format="1">
  <advance width="798.0"/>
  <unicode hex="00F0"/>
  <outline>
    <contour>
      <point x="399.0" y="-12.0" type="curve" smooth="yes"/>
      <point x="573.0" y="-12.0"/>
      <point x="696.0" y="91.8"/>
      <point x="696.0" y="252.0" type="curve" smooth="yes"/>
      <point x="696.0" y="511.6"/>
      <point x="489.0" y="640.0"/>
      <point x="258.0" y="724.2" type="curve"/>
      <point x="234.0" y="694.0" type="line"/>
      <point x="456.0" y="607.6"/>
      <point x="648.0" y="504.3"/>
      <point x="648.0" y="251.0" type="curve" smooth="yes"/>
      <point x="648.0" y="126.0"/>
      <point x="573.0" y="27.0"/>
      <point x="399.0" y="27.0" type="curve" smooth="yes"/>
      <point x="258.0" y="27.0"/>
      <point x="141.0" y="106.0"/>
      <point x="141.0" y="219.2" type="curve" smooth="yes"/>
      <point x="141.0" y="318.5"/>
      <point x="229.5" y="404.0"/>
      <point x="402.0" y="404.0" type="curve" smooth="yes"/>
      <point x="483.0" y="404.0"/>
      <point x="567.0" y="386.7"/>
      <point x="651.0" y="306.4" type="curve"/>
      <point x="651.0" y="349.2" type="line"/>
      <point x="588.0" y="411.0"/>
      <point x="501.0" y="441.8"/>
      <point x="405.0" y="441.8" type="curve" smooth="yes"/>
      <point x="216.0" y="441.8"/>
      <point x="93.0" y="350.8"/>
      <point x="93.0" y="219.2" type="curve" smooth="yes"/>
      <point x="93.0" y="74.8"/>
      <point x="243.0" y="-12.0"/>
    </contour>
    <contour>
      <point x="243.0" y="514.5" type="line"/>
      <point x="696.0" y="676.0" type="line"/>
      <point x="678.0" y="703.3" type="line"/>
      <point x="225.0" y="541.7" type="line"/>
    </contour>
  </outline>
</glyph>
<glyph name="divide" format="1">
  <advance width="708.0"/>
  <unicode hex="00F7"/>
  <outline>
    <contour>
      <point x="51.0" y="311.4" type="line"/>
      <point x="657.0" y="311.4" type="line"/>
      <point x="657.0" y="348.6" type="line"/>
      <point x="51.0" y="348.6" type="line"/>
    </contour>
    <contour>
      <point x="354.0" y="109.0" type="curve" smooth="yes"/>
      <point x="381.0" y="109.0"/>
      <point x="402.0" y="125.2"/>
      <point x="402.0" y="150.0" type="curve" smooth="yes"/>
      <point x="402.0" y="173.0"/>
      <point x="381.0" y="189.2"/>
      <point x="354.0" y="189.2" type="curve" smooth="yes"/>
      <point x="327.0" y="189.2"/>
      <point x="306.0" y="173.0"/>
      <point x="306.0" y="150.0" type="curve" smooth="yes"/>
      <point x="306.0" y="125.2"/>
      <point x="327.0" y="109.0"/>
    </contour>
    <contour>
      <point x="354.0" y="469.0" type="curve" smooth="yes"/>
      <point x="381.0" y="469.0"/>
      <point x="402.0" y="485.2"/>
      <point x="402.0" y="510.0" type="curve" smooth="yes"/>
      <point x="402.0" y="533.0"/>
      <point x="381.0" y="549.2"/>
      <point x="354.0" y="549.2" type="curve" smooth="yes"/>
      <point x="327.0" y="549.2"/>
      <point x="306.0" y="533.0"/>
      <point x="306.0" y="510.0" type="curve" smooth="yes"/>
      <point x="306.0" y="485.2"/>
      <point x="327.0" y="469.0"/>
    </contour>
  </outline>
</glyph>
<glyph name="oslash" format="1">
  <advance width="798.0"/>
  <unicode hex="00F8"/>
  <outline>
    <contour>
      <point x="399.0" y="-12.0" type="curve" smooth="yes"/>
      <point x="570.0" y="-12.0"/>
      <point x="717.0" y="80.4"/>
      <point x="717.0" y="239.2" type="curve" smooth="yes"/>
      <point x="717.0" y="399.8"/>
      <point x="570.0" y="492.2"/>
      <point x="399.0" y="492.2" type="curve" smooth="yes"/>
      <point x="228.0" y="492.2"/>
      <point x="81.0" y="399.8"/>
      <point x="81.0" y="239.2" type="curve" smooth="yes"/>
      <point x="81.0" y="80.4"/>
      <point x="228.0" y="-12.0"/>
    </contour>
    <contour>
      <point x="399.0" y="26.4" type="curve" smooth="yes"/>
      <point x="246.0" y="26.4"/>
      <point x="129.0" y="111.6"/>
      <point x="129.0" y="240.2" type="curve" smooth="yes"/>
      <point x="129.0" y="366.2"/>
      <point x="246.0" y="453.8"/>
      <point x="399.0" y="453.8" type="curve" smooth="yes"/>
      <point x="552.0" y="453.8"/>
      <point x="669.0" y="366.8"/>
      <point x="669.0" y="238.2" type="curve" smooth="yes"/>
      <point x="669.0" y="112.2"/>
      <point x="552.0" y="26.4"/>
    </contour>
    <contour>
      <point x="102.0" y="-22.4" type="line"/>
      <point x="729.0" y="480.0" type="line"/>
      <point x="696.0" y="501.0" type="line"/>
      <point x="69.0" y="-1.4" type="line"/>
    </contour>
    <contour>
      <point x="399.0" y="504.0" type="move" name="aboveLC"/>
    </contour>
  </outline>
</glyph>
<glyph name="mu" format="1">
  <advance width="804.0"/>
  <unicode hex="03BC"/>
  <outline>
    <contour>
      <point x="144.0" y="-179.6" type="line"/>
      <point x="189.0" y="-179.6" type="line"/>
      <point x="183.0" y="-99.2"/>
      <point x="183.0" y="-59.7"/>
      <point x="183.0" y="49.4" type="curve"/>
      <point x="225.0" y="-0.4"/>
      <point x="285.0" y="-11.4"/>
      <point x="363.0" y="-11.4" type="curve" smooth="yes"/>
      <point x="453.0" y="-11.4"/>
      <point x="534.0" y="20.0"/>
      <point x="600.0" y="89.4" type="curve"/>
      <point x="603.0" y="89.4" type="line"/>
      <point x="600.0" y="17.8"/>
      <point x="618.0" y="-12.0"/>
      <point x="684.0" y="-12.0" type="curve"/>
      <point x="706.5" y="-12.0"/>
      <point x="724.5" y="-7.6"/>
      <point x="738.0" y="-3.0" type="curve"/>
      <point x="729.0" y="33.0" type="line"/>
      <point x="711.0" y="29.0"/>
      <point x="700.5" y="27.0"/>
      <point x="687.0" y="27.0" type="curve" smooth="yes"/>
      <point x="663.0" y="27.0"/>
      <point x="645.0" y="38.8"/>
      <point x="645.0" y="63.8" type="curve" smooth="yes"/>
      <point x="645.0" y="200.4"/>
      <point x="646.5" y="339.6"/>
      <point x="648.0" y="480.2" type="curve"/>
      <point x="603.0" y="480.2" type="line"/>
      <point x="603.0" y="139.4" type="line"/>
      <point x="511.5" y="41.3"/>
      <point x="435.0" y="27.8"/>
      <point x="357.0" y="27.8" type="curve" smooth="yes"/>
      <point x="237.0" y="27.8"/>
      <point x="189.0" y="83.4"/>
      <point x="189.0" y="178.0" type="curve" smooth="yes"/>
      <point x="189.0" y="480.2" type="line"/>
      <point x="144.0" y="480.2" type="line"/>
    </contour>
  </outline>
</glyph>
<glyph name="guilsinglright" format="1">
  <advance width="381.0"/>
  <unicode hex="203A"/>
  <outline>
    <contour>
      <point x="111.0" y="71.8" type="line"/>
      <point x="318.0" y="233.4" type="line"/>
      <point x="318.0" y="270.6" type="line"/>
      <point x="111.0" y="432.2" type="line"/>
      <point x="81.0" y="411.0" type="line"/>
      <point x="267.0" y="252.0" type="line"/>
      <point x="81.0" y="91.2" type="line"/>
    </contour>
  </outline>
</glyph>
<glyph name="fraction" format="1">
  <advance width="117.0"/>
  <unicode hex="2044"/>
  <outline>
    <contour>
      <point x="-246.0" y="-12.0" type="line"/>
      <point x="-198.0" y="-12.0" type="line"/>
      <point x="357.0" y="671.0" type="line"/>
      <point x="309.0" y="671.0" type="line"/>
    </contour>
  </outline>
</glyph>
<glyph name="circumflexcmb" format="1">
  <advance width="0"/>
  <outline>
    <contour>
      <point x="-198.0" y="592.8" type="line"/>
      <point x="-171.0" y="572.4" type="line"/>
      <point x="-3.0" y="697.8" type="line"/>
      <point x="3.0" y="697.8" type="line"/>
      <point x="171.0" y="572.4" type="line"/>
      <point x="198.0" y="592.8" type="line"/>
      <point x="21.0" y="737.0" type="line"/>
      <point x="-21.0" y="737.0" type="line"/>
    </contour>
    <contour>
      <point x="0.0" y="504.0" type="move" name="_aboveLC"/>
    </contour>
    <contour>
      <point x="0.0" y="729.2" type="move" name="aboveLC"/>
    </contour>
  </outline>
</glyph>
<glyph name="dieresiscmb.cap" format="1">
  <advance width="0"/>
  <outline>
    <contour>
      <point x="-144.0" y="724.6" type="curve" smooth="yes"/>
      <point x="-117.0" y="724.6"/>
      <point x="-96.0" y="738.8"/>
      <point x="-96.0" y="761.2" type="curve" smooth="yes"/>
      <point x="-96.0" y="783.6"/>
      <point x="-117.0" y="797.8"/>
      <point x="-144.0" y="797.8" type="curve" smooth="yes"/>
      <point x="-171.0" y="797.8"/>
      <point x="-192.0" y="783.6"/>
      <point x="-192.0" y="761.2" type="curve" smooth="yes"/>
      <point x="-192.0" y="738.8"/>
      <point x="-171.0" y="724.6"/>
    </contour>
    <contour>
      <point x="144.0" y="724.6" type="curve" smooth="yes"/>
      <point x="171.0" y="724.6"/>
      <point x="192.0" y="738.8"/>
      <point x="192.0" y="761.2" type="curve" smooth="yes"/>
      <point x="192.0" y="783.6"/>
      <point x="171.0" y="797.8"/>
      <point x="144.0" y="797.8" type="curve" smooth="yes"/>
      <point x="117.0" y="797.8"/>
      <point x="96.0" y="783.6"/>
      <point x="96.0" y="761.2" type="curve" smooth="yes"/>
      <point x="96.0" y="738.8"/>
      <point x="117.0" y="724.6"/>
    </contour>
    <contour>
      <point x="0.0" y="681.0" type="move" name="_aboveUC"/>
    </contour>
  </outline>
</glyph>
<glyph name="dieresiscmb" format="1">
  <advance width="0"/>
  <outline>
    <contour>
      <point x="-129.0" y="598.0" type="curve" smooth="yes"/>
      <point x="-102.0" y="598.0"/>
      <point x="-81.0" y="614.1"/>
      <point x="-81.0" y="634.8" type="curve" smooth="yes"/>
      <point x="-81.0" y="655.5"/>
      <point x="-102.0" y="671.6"/>
      <point x="-129.0" y="671.6" type="curve" smooth="yes"/>
      <point x="-156.0" y="671.6"/>
      <point x="-177.0" y="655.5"/>
      <point x="-177.0" y="634.8" type="curve" smooth="yes"/>
      <point x="-177.0" y="614.1"/>
      <point x="-156.0" y="598.0"/>
    </contour>
    <contour>
      <point x="129.0" y="598.0" type="curve" smooth="yes"/>
      <point x="156.0" y="598.0"/>
      <point x="177.0" y="614.1"/>
      <point x="177.0" y="634.8" type="curve" smooth="yes"/>
      <point x="177.0" y="655.5"/>
      <point x="156.0" y="671.6"/>
      <point x="129.0" y="671.6" type="curve" smooth="yes"/>
      <point x="102.0" y="671.6"/>
      <point x="81.0" y="655.5"/>
      <point x="81.0" y="634.8" type="curve" smooth="yes"/>
      <point x="81.0" y="614.1"/>
      <point x="102.0" y="598.0"/>
    </contour>
    <contour>
      <point x="0.0" y="504.0" type="move" name="_aboveLC"/>
    </contour>
    <contour>
      <point x="0.0" y="679.6" type="move" name="aboveLC"/>
    </contour>
  </outline>
</glyph>
<glyph name="macroncmb" format="1">
  <advance width="0"/>
  <outline>
    <contour>
      <point x="-180.0" y="606.0" type="line"/>
      <point x="180.0" y="606.0" type="line"/>
      <point x="180.0" y="642.0" type="line"/>
      <point x="-180.0" y="642.0" type="line"/>
    </contour>
    <contour>
      <point x="0.0" y="504.0" type="move" name="_aboveLC"/>
    </contour>
  </outline>
</glyph>
<glyph name="o.sups" format="1">
  <advance width="537.0"/>
  <outline>
    <contour>
      <point x="267.0" y="397.8" type="curve" smooth="yes"/>
      <point x="387.0" y="397.8"/>
      <point x="483.0" y="460.0"/>
      <point x="483.0" y="564.5" type="curve" smooth="yes"/>
      <point x="483.0" y="670.9"/>
      <point x="387.0" y="731.4"/>
      <point x="267.0" y="731.4" type="curve" smooth="yes"/>
      <point x="147.0" y="731.4"/>
      <point x="51.0" y="670.9"/>
      <point x="51.0" y="564.5" type="curve" smooth="yes"/>
      <point x="51.0" y="460.0"/>
      <point x="147.0" y="397.8"/>
    </contour>
    <contour>
      <point x="267.0" y="430.6" type="curve" smooth="yes"/>
      <point x="165.0" y="430.6"/>
      <point x="96.0" y="485.9"/>
      <point x="96.0" y="564.5" type="curve" smooth="yes"/>
      <point x="96.0" y="645.0"/>
      <point x="165.0" y="698.6"/>
      <point x="267.0" y="698.6" type="curve" smooth="yes"/>
      <point x="369.0" y="698.6"/>
      <point x="438.0" y="645.0"/>
      <point x="438.0" y="564.5" type="curve" smooth="yes"/>
      <point x="438.0" y="485.9"/>
      <point x="369.0" y="430.6"/>
    </contour>
  </outline>
</glyph>
<glyph name="ringcmb" format="1">
  <advance width="0"/>
  <outline>
    <contour>
      <point x="0.0" y="548.2" type="curve" smooth="yes"/>
      <point x="78.0" y="548.2"/>
      <point x="138.0" y="587.2"/>
      <point x="138.0" y="643.4" type="curve" smooth="yes"/>
      <point x="138.0" y="699.6"/>
      <point x="78.0" y="738.6"/>
      <point x="0.0" y="738.6" type="curve" smooth="yes"/>
      <point x="-78.0" y="738.6"/>
      <point x="-138.0" y="699.6"/>
      <point x="-138.0" y="643.4" type="curve" smooth="yes"/>
      <point x="-138.0" y="587.2"/>
      <point x="-78.0" y="548.2"/>
    </contour>
    <contour>
      <point x="0.0" y="574.2" type="curve" smooth="yes"/>
      <point x="-57.0" y="574.2"/>
      <point x="-102.0" y="601.2"/>
      <point x="-102.0" y="643.4" type="curve" smooth="yes"/>
      <point x="-102.0" y="685.6"/>
      <point x="-57.0" y="712.6"/>
      <point x="0.0" y="712.6" type="curve" smooth="yes"/>
      <point x="57.0" y="712.6"/>
      <point x="102.0" y="685.6"/>
      <point x="102.0" y="643.4" type="curve" smooth="yes"/>
      <point x="102.0" y="601.2"/>
      <point x="57.0" y="574.2"/>
    </contour>
    <contour>
      <point x="0.0" y="504.0" type="move" name="_aboveLC"/>
    </contour>
  </outline>
</glyph>
<glyph name="tildecmb.cap" format="1">
  <advance width="0"/>
  <outline>
    <contour>
      <point x="117.0" y="718.4" type="curve" smooth="yes"/>
      <point x="195.0" y="718.4"/>
      <point x="237.0" y="766.7"/>
      <point x="240.0" y="829.0" type="curve"/>
      <point x="204.0" y="831.6" type="line"/>
      <point x="195.0" y="785.0"/>
      <point x="163.5" y="755.4"/>
      <point x="117.0" y="755.4" type="curve" smooth="yes"/>
      <point x="30.0" y="755.4"/>
      <point x="0.0" y="834.4"/>
      <point x="-117.0" y="834.4" type="curve" smooth="yes"/>
      <point x="-195.0" y="834.4"/>
      <point x="-237.0" y="786.1"/>
      <point x="-240.0" y="723.8" type="curve"/>
      <point x="-204.0" y="721.2" type="line"/>
      <point x="-198.0" y="767.8"/>
      <point x="-163.5" y="797.4"/>
      <point x="-117.0" y="797.4" type="curve" smooth="yes"/>
      <point x="-30.0" y="797.4"/>
      <point x="0.0" y="718.4"/>
    </contour>
    <contour>
      <point x="0.0" y="681.0" type="move" name="_aboveUC"/>
    </contour>
  </outline>
</glyph>
<glyph name="tildecmb" format="1">
  <advance width="0"/>
  <outline>
    <contour>
      <point x="115.5" y="579.2" type="curve" smooth="yes"/>
      <point x="210.0" y="579.2"/>
      <point x="234.0" y="643.1"/>
      <point x="240.0" y="704.8" type="curve"/>
      <point x="201.0" y="707.2" type="line"/>
      <point x="198.0" y="656.8"/>
      <point x="174.0" y="614.4"/>
      <point x="118.5" y="614.4" type="curve" smooth="yes"/>
      <point x="30.0" y="614.4"/>
      <point x="0.0" y="710.0"/>
      <point x="-114.0" y="710.0" type="curve" smooth="yes"/>
      <point x="-210.0" y="710.0"/>
      <point x="-234.0" y="647.0"/>
      <point x="-240.0" y="584.4" type="curve"/>
      <point x="-201.0" y="582.0" type="line"/>
      <point x="-198.0" y="634.2"/>
      <point x="-174.0" y="674.8"/>
      <point x="-117.0" y="674.8" type="curve" smooth="yes"/>
      <point x="-30.0" y="674.8"/>
      <point x="0.0" y="579.2"/>
    </contour>
    <contour>
      <point x="0.0" y="504.0" type="move" name="_aboveLC"/>
    </contour>
  </outline>
</glyph>
<glyph name="two.dnom" format="1">
  <advance width="540.0"/>
  <outline>
    <contour>
      <point x="87.0" y="0.0" type="line"/>
      <point x="462.0" y="0.0" type="line"/>
      <point x="462.0" y="33.8" type="line"/>
      <point x="159.0" y="33.8" type="line"/>
      <point x="318.0" y="132.6"/>
      <point x="426.0" y="197.3"/>
      <point x="426.0" y="278.8" type="curve" smooth="yes"/>
      <point x="426.0" y="361.0"/>
      <point x="354.0" y="402.0"/>
      <point x="249.0" y="402.0" type="curve" smooth="yes"/>
      <point x="177.0" y="402.0"/>
      <point x="108.0" y="368.8"/>
      <point x="75.0" y="329.0" type="curve"/>
      <point x="105.0" y="306.4" type="line"/>
      <point x="138.0" y="339.8"/>
      <point x="189.0" y="368.4"/>
      <point x="246.0" y="368.4" type="curve" smooth="yes"/>
      <point x="327.0" y="368.4"/>
      <point x="381.0" y="332.2"/>
      <point x="381.0" y="274.8" type="curve" smooth="yes"/>
      <point x="381.0" y="209.2"/>
      <point x="294.0" y="148.8"/>
      <point x="87.0" y="24.6" type="curve"/>
    </contour>
  </outline>
</glyph>
